<svg xmlns="http://www.w3.org/2000/svg" viewBox="0 0 244.33 57.26">
  <defs>
    <style>
      .a {
        fill: #1a171b;
      }
    </style>
  </defs>
  <title>grant_eps_black</title>
  <path class="a" d="M96.15,21h0l-2.33,6.65h4.71L96.15,21m-1.78-3.24H98l6.33,16.12h-3.58L99.39,30.2H92.85l-1.41,3.69H88.09Z"/>
  <path class="a" d="M109.27,24.66h1.07c1.59,0,3.42-.23,3.42-2.24s-1.8-2.1-3.42-2.1h-1.07v4.35M106,17.77h3.49c3.46,0,7.6-.11,7.6,4.37a3.69,3.69,0,0,1-3.32,3.74v0a2.4,2.4,0,0,1,1.71,1.66l2.59,6.31h-3.6l-1.94-5c-0.47-1.2-.88-1.66-2.24-1.66h-1v6.7H106V17.77Z"/>
  <polyline class="a" points="123.29 20.31 118.67 20.31 118.67 17.77 131.14 17.77 131.14 20.31 126.52 20.31 126.52 33.9 123.29 33.9 123.29 20.31"/>
  <path class="a" d="M141.85,20.73a8.34,8.34,0,0,0-3.28-.69A2.25,2.25,0,0,0,136,22.28c0,2.79,7.07,1.61,7.07,7,0,3.53-2.8,4.88-6.05,4.88a14.08,14.08,0,0,1-4.13-.62l0.3-2.91a7.79,7.79,0,0,0,3.65,1c1.22,0,2.86-.62,2.86-2.08,0-3.07-7.07-1.8-7.07-7.14,0-3.6,2.79-4.92,5.64-4.92a12.13,12.13,0,0,1,3.85.58l-0.3,2.65"/>
  <path class="a" d="M163.72,33.67a16.48,16.48,0,0,1-3.67.5c-5.22,0-8.85-2.61-8.85-8.06s3.37-8.61,8.85-8.61a10.59,10.59,0,0,1,3.65.67l-0.23,2.72A6.64,6.64,0,0,0,160,20c-3.33,0-5.4,2.54-5.4,5.84s2,5.75,5.47,5.75a9,9,0,0,0,3.53-.67l0.14,2.71"/>
  <path class="a" d="M173.12,31.63c3.3,0,4.53-2.94,4.53-5.85S176.33,20,173.12,20s-4.52,2.91-4.52,5.75,1.22,5.85,4.52,5.85m0-14.14c5.06,0,7.9,3.42,7.9,8.29s-2.8,8.38-7.9,8.38-7.9-3.44-7.9-8.38,2.77-8.29,7.9-8.29"/>
  <path class="a" d="M183.16,17.77h3.23v9.31c0,2.75.88,4.55,3.35,4.55s3.35-1.8,3.35-4.55V17.77h3.23v10.3c0,4.32-2.45,6.1-6.58,6.1s-6.58-1.78-6.58-6.1V17.77"/>
  <polyline class="a" points="198.75 17.77 202.72 17.77 208.86 29.83 208.91 29.83 208.91 17.77 212 17.77 212 33.89 208.06 33.89 201.89 21.84 201.84 21.84 201.84 33.89 198.75 33.89 198.75 17.77"/>
  <path class="a" d="M226.62,33.67a16.45,16.45,0,0,1-3.67.5c-5.22,0-8.85-2.61-8.85-8.06s3.37-8.61,8.85-8.61a10.58,10.58,0,0,1,3.65.67l-0.23,2.72a6.65,6.65,0,0,0-3.49-.85c-3.32,0-5.41,2.54-5.41,5.84s2,5.75,5.47,5.75a9,9,0,0,0,3.53-.67l0.14,2.71"/>
  <rect class="a" x="229.07" y="17.77" width="3.23" height="16.12"/>
  <polyline class="a" points="234.84 17.77 238.07 17.77 238.07 31.35 244.33 31.35 244.33 33.89 234.84 33.89 234.84 17.77"/>
  <polyline class="a" points="88.14 40.87 97.66 40.87 97.66 43.41 91.37 43.41 91.37 47.38 97.13 47.38 97.13 49.92 91.37 49.92 91.37 54.45 97.7 54.45 97.7 56.99 88.14 56.99 88.14 40.87"/>
  <polyline class="a" points="100.36 40.87 104.33 40.87 110.47 52.92 110.52 52.92 110.52 40.87 113.61 40.87 113.61 56.99 109.67 56.99 103.5 44.93 103.45 44.93 103.45 56.99 100.36 56.99 100.36 40.87"/>
  <path class="a" d="M129.2,44a10.55,10.55,0,0,0-4.16-.85A5.48,5.48,0,0,0,119.2,49c0,3.28,2,5.75,5.47,5.75a8.83,8.83,0,0,0,2.13-.23v-4.2h-3.42V47.75h6.51v8.68a20.35,20.35,0,0,1-5.22.83c-5.22,0-8.84-2.61-8.84-8.06s3.37-8.61,8.84-8.61a15.86,15.86,0,0,1,4.74.67L129.2,44"/>
  <polyline class="a" points="132.48 40.87 135.71 40.87 135.71 54.45 141.97 54.45 141.97 56.99 132.48 56.99 132.48 40.87"/>
  <path class="a" d="M151.46,44.1h0l-2.34,6.65h4.71l-2.33-6.65m-1.78-3.23h3.65L159.66,57h-3.58l-1.39-3.7h-6.53L146.75,57H143.4Z"/>
  <polyline class="a" points="161.22 40.87 165.2 40.87 171.34 52.92 171.38 52.92 171.38 40.87 174.48 40.87 174.48 56.99 170.53 56.99 164.36 44.93 164.32 44.93 164.32 56.99 161.22 56.99 161.22 40.87"/>
  <path class="a" d="M180.35,54.45h1.8a5.27,5.27,0,0,0,5.31-5.52,5.27,5.27,0,0,0-5.31-5.52h-1.8v11m-3.23-13.58h4.41c4.94,0,9.31,1.66,9.31,8.06S186.47,57,181.53,57h-4.41V40.87Z"/>
  <path class="a" d="M233.66,3.39H233l1.84,5.24-0.13.46c-0.2.67-.38,1.13-0.93,1.13a1.27,1.27,0,0,1-.48-0.08l-0.06.55a3.1,3.1,0,0,0,.69.08,1.66,1.66,0,0,0,1.33-1.42l2.07-6h-0.67L235.12,7.7h0l-1.45-4.32M231.58,6c0,1-.31,2.16-1.54,2.16S228.5,6.92,228.5,6s0.37-2.17,1.54-2.17S231.58,5,231.58,6m-3.71,2.59h0.64V7.75h0a1.66,1.66,0,0,0,1.62.94c1.42,0,2.13-1.18,2.13-2.71s-0.61-2.71-2.13-2.71a1.74,1.74,0,0,0-1.62,1h0V0.95h-0.64V8.57Zm-3.46-5.18h-0.64V4h0a1.72,1.72,0,0,0-1.62-.71C220.61,3.26,220,4.4,220,6c0,1.15.53,2.59,2.18,2.59a1.61,1.61,0,0,0,1.58-1h0c0,1.46-.14,2.66-1.79,2.66a3.49,3.49,0,0,1-1.52-.37l-0.05.64a5.39,5.39,0,0,0,1.57.27c1.78,0,2.43-1.18,2.43-2.62V3.39ZM220.7,6c0-1,.32-2.17,1.54-2.17s1.53,0.92,1.53,2.17c0,0.94-.42,2-1.57,2s-1.49-1-1.49-2m-6.17,2.59h0.64V5.7a1.63,1.63,0,0,1,1.53-1.89c0.88,0,1.23.63,1.23,1.6V8.57h0.64V5.26a1.7,1.7,0,0,0-1.77-2,1.64,1.64,0,0,0-1.68,1h0V3.39h-0.62c0,0.42,0,.82,0,1.22v4ZM212.18,2h0.64V1.15h-0.64V2Zm0,6.56h0.64V3.39h-0.64V8.57ZM206.79,6c0-1,.32-2.17,1.53-2.17S209.86,5,209.86,6s-0.4,2.16-1.54,2.16S206.79,7,206.79,6m3.71-5h-0.64V4.26h0a1.75,1.75,0,0,0-1.62-1c-1.52,0-2.13,1.14-2.13,2.71s0.71,2.71,2.13,2.71a1.66,1.66,0,0,0,1.62-.94h0V8.57h0.64V0.95Zm-9.89,7.62h0.64V5.7a1.63,1.63,0,0,1,1.54-1.89c0.88,0,1.23.63,1.23,1.6V8.57h0.64V5.26a1.7,1.7,0,0,0-1.77-2,1.64,1.64,0,0,0-1.68,1h0V3.39h-0.62c0,0.42,0,.82,0,1.22v4Zm-1.72-5.18h-0.64V6.25a1.63,1.63,0,0,1-1.53,1.89c-0.88,0-1.23-.63-1.23-1.6V3.39h-0.64V6.7a1.7,1.7,0,0,0,1.77,2,1.64,1.64,0,0,0,1.68-1h0V8.57h0.62c0-.42,0-0.82,0-1.22v-4Zm-7.08,5.18h0.64V3.93h1.17V3.39h-1.17V2.94c0-.62-0.09-1.57.78-1.57a1.12,1.12,0,0,1,.51.11l0-.56a1.47,1.47,0,0,0-.6-0.1c-1.33,0-1.37,1.1-1.37,2.18V3.39h-1V3.93h1V8.57Zm-3.5-5.1a3.89,3.89,0,0,0-1.25-.2A2.51,2.51,0,0,0,184.5,6,2.45,2.45,0,0,0,187,8.69a3.88,3.88,0,0,0,1.33-.18l-0.06-.6a3.33,3.33,0,0,1-1.17.23A2,2,0,0,1,185.2,6a1.93,1.93,0,0,1,1.95-2.17,2.93,2.93,0,0,1,1.11.26ZM182.47,2h0.64V1.15h-0.64V2Zm0,6.56h0.64V3.39h-0.64V8.57Zm-2.35,0h0.64V0.95h-0.64V8.57ZM178,6c0,1-.31,2.16-1.53,2.16S174.89,6.92,174.89,6s0.37-2.17,1.53-2.17S178,5,178,6m-3.71,2.59h0.64V7.75h0a1.66,1.66,0,0,0,1.62.94c1.42,0,2.13-1.18,2.13-2.71S178,3.26,176.52,3.26a1.74,1.74,0,0,0-1.62,1h0V0.95h-0.64V8.57Zm-1.68-5.18h-0.64V6.25a1.63,1.63,0,0,1-1.53,1.89c-0.89,0-1.23-.63-1.23-1.6V3.39h-0.64V6.7a1.7,1.7,0,0,0,1.77,2,1.64,1.64,0,0,0,1.68-1h0V8.57h0.62c0-.42,0-0.82,0-1.22v-4ZM166.38,6c0,1-.31,2.16-1.53,2.16S163.31,6.92,163.31,6s0.4-2.17,1.54-2.17S166.38,5,166.38,6m-3.71,4.72h0.64v-3h0a1.61,1.61,0,0,0,1.62,1c1.42,0,2.13-1.18,2.13-2.71s-0.61-2.71-2.13-2.71a1.79,1.79,0,0,0-1.66,1.07h0l0-.94h-0.64V10.7Zm-3.46-7.31h-0.64V4h0a1.71,1.71,0,0,0-1.62-.71c-1.52,0-2.13,1.14-2.13,2.71,0,1.15.53,2.59,2.18,2.59a1.61,1.61,0,0,0,1.57-1h0c0,1.46-.14,2.66-1.79,2.66a3.51,3.51,0,0,1-1.52-.37l-0.05.64a5.38,5.38,0,0,0,1.56.27c1.78,0,2.43-1.18,2.43-2.62V3.39ZM155.5,6c0-1,.32-2.17,1.53-2.17s1.53,0.92,1.53,2.17c0,0.94-.42,2-1.57,2s-1.49-1-1.49-2m-6.17,2.59H150V5.7a1.63,1.63,0,0,1,1.54-1.89c0.88,0,1.23.63,1.23,1.6V8.57h0.64V5.26a1.7,1.7,0,0,0-1.77-2,1.65,1.65,0,0,0-1.68,1h0V3.39h-0.62c0,0.42,0,.82,0,1.22v4ZM147,2h0.64V1.15H147V2Zm0,6.56h0.64V3.39H147V8.57Zm-4.53-.12a3.89,3.89,0,0,0,1.45.24,1.6,1.6,0,0,0,1.81-1.47c0-1.7-2.55-1.58-2.55-2.54a0.89,0.89,0,0,1,1.12-.86,3,3,0,0,1,1.15.24l0.06-.56a4.08,4.08,0,0,0-1.28-.23,1.46,1.46,0,0,0-1.69,1.41c0,1.5,2.49,1.31,2.49,2.54a1,1,0,0,1-1.15.92,3,3,0,0,1-1.35-.33Zm-1.26-5.06h-0.64V6.25A1.63,1.63,0,0,1,139,8.14c-0.88,0-1.23-.63-1.23-1.6V3.39h-0.64V6.7a1.7,1.7,0,0,0,1.77,2,1.64,1.64,0,0,0,1.68-1h0V8.57h0.62c0-.42,0-0.82,0-1.22v-4ZM129.92,6c0-1,.32-2.17,1.53-2.17S133,5,133,6s-0.4,2.16-1.53,2.16S129.92,7,129.92,6m3.71-5H133V4.26h0a1.75,1.75,0,0,0-1.62-1c-1.52,0-2.13,1.14-2.13,2.71s0.71,2.71,2.13,2.71A1.66,1.66,0,0,0,133,7.75h0V8.57h0.64V0.95Zm-9.06,4.66a1.69,1.69,0,0,1,1.52-1.8c1,0,1.32.89,1.32,1.8h-2.84Zm3.16,2.14a3.34,3.34,0,0,1-1.45.38,1.75,1.75,0,0,1-1.71-2h3.54V5.84c0-1.39-.6-2.57-2.06-2.57-1.31,0-2.18,1.13-2.18,2.71s0.64,2.71,2.36,2.71a4.24,4.24,0,0,0,1.5-.28V7.76ZM123,3.39h-1.18V1.91l-0.64.22V3.39h-1V3.93h1V7c0,0.94,0,1.73,1.18,1.73a2.33,2.33,0,0,0,.78-0.14l0-.53a1.48,1.48,0,0,1-.59.12,0.71,0.71,0,0,1-.69-0.85V3.93H123V3.39Zm-6,5.18h0.64V6c0-.93.27-2.07,1.29-2.07a1.66,1.66,0,0,1,.47.06V3.33a1.86,1.86,0,0,0-.45-0.06,1.53,1.53,0,0,0-1.33,1.12h0v-1h-0.64a9.19,9.19,0,0,1,0,1.16v4ZM111.45,6c0-1.2.6-2.17,1.72-2.17s1.72,1,1.72,2.17-0.6,2.16-1.72,2.16-1.72-1-1.72-2.16m-0.7,0a2.43,2.43,0,1,0,4.83,0,2.43,2.43,0,1,0-4.83,0m-1.83,0c0,1-.32,2.16-1.54,2.16S105.85,6.92,105.85,6s0.4-2.17,1.53-2.17S108.92,5,108.92,6m-3.71,4.72h0.64v-3h0a1.61,1.61,0,0,0,1.62,1c1.42,0,2.13-1.18,2.13-2.71S109,3.26,107.49,3.26a1.79,1.79,0,0,0-1.66,1.07h0l0-.94h-0.64V10.7ZM103.09,6c0,1-.32,2.16-1.53,2.16S100,6.92,100,6s0.4-2.17,1.54-2.17S103.09,5,103.09,6M99.38,10.7H100v-3h0a1.61,1.61,0,0,0,1.62,1c1.42,0,2.13-1.18,2.13-2.71s-0.61-2.71-2.13-2.71A1.79,1.79,0,0,0,100,4.33h0l0-.94H99.38V10.7ZM97.7,3.39H97.06V6.25a1.63,1.63,0,0,1-1.53,1.89c-0.88,0-1.23-.63-1.23-1.6V3.39H93.66V6.7a1.7,1.7,0,0,0,1.77,2,1.64,1.64,0,0,0,1.68-1h0V8.57h0.62c0-.42,0-0.82,0-1.22v-4Zm-9.4,5a4,4,0,0,0,1.6.31,2.08,2.08,0,0,0,2.33-2c0-2.07-3.25-2.08-3.25-3.5A1.31,1.31,0,0,1,90.52,2a2.89,2.89,0,0,1,1.29.26l0.11-.64a4.24,4.24,0,0,0-1.39-.23A2,2,0,0,0,88.29,3.2c0,1.86,3.25,2,3.25,3.42a1.41,1.41,0,0,1-1.6,1.45,2.78,2.78,0,0,1-1.56-.42Z"/>
  <path class="a" d="M7.2,28.19L7.15,26.45,0,29l0.07,1.88L7.38,33,7.32,31.4l-1.63-.45L5.61,28.69l1.6-.51m-2.81.87,0.06,1.65-3-.78v0Z"/>
  <path class="a" d="M7.53,24.46l0.52-1.62-2.78-.9c0.19-.59.26-0.81,1.29-0.77l2,0.06,0.55-1.69-2.47,0c-0.91,0-1.24.1-1.47,0.58h0a1.69,1.69,0,0,0-1.24-1.91c-1.27-.41-2.08.39-2.45,1.53L0.65,22.22l6.88,2.24M2.32,21l0.16-.5a0.86,0.86,0,0,1,1.18-.67,0.92,0.92,0,0,1,.61,1.24l-0.17.5Z"/>
  <polyline class="a" points="10.53 17.32 11.51 15.94 6.66 12.54 7.55 11.25 6.48 10.51 3.7 14.47 4.77 15.22 5.68 13.93 10.53 17.32"/>
  <path class="a" d="M11.93,5.58a7,7,0,0,0-1.46.9C8.62,8,9.73,9.5,9.88,9.67c1.65,2,3.4-.37,4.3.69a0.93,0.93,0,0,1-.26,1.34,3.91,3.91,0,0,1-1.5.68l0.84,1.14a7,7,0,0,0,1.69-1,2.25,2.25,0,0,0,.52-3.31c-1.65-2-3.43.33-4.28-.67a0.81,0.81,0,0,1,.23-1.22,3.42,3.42,0,0,1,1.33-.64L11.93,5.58"/>
  <path class="a" d="M25,0.41A4.31,4.31,0,0,0,23.08.5c-1.43.33-2.93,1.76-2.33,4.34,0.52,2.23,2.2,3.36,4.13,2.92a5.84,5.84,0,0,0,1.7-.66l-0.4-1.46a3,3,0,0,1-1.35.71c-1.05.24-2.06-.5-2.38-1.87S22.61,2,23.72,1.72a2.75,2.75,0,0,1,1.53.07L25,0.41"/>
  <path class="a" d="M28.82,3.44c-0.26,2.11.52,3.83,2.59,4.08s3.25-1.22,3.51-3.33S34.39,0.35,32.32.11s-3.24,1.22-3.5,3.33m1.73,0.22c0.18-1.37.65-2.46,1.62-2.34s1.19,1.28,1,2.66-0.66,2.46-1.63,2.34-1.18-1.28-1-2.66"/>
  <path class="a" d="M37.33,6a2.47,2.47,0,0,0,1.12,3.65,2.46,2.46,0,0,0,3.61-1.24l2.09-4.1-1.51-.77L40.42,7.83A0.94,0.94,0,0,1,39,8.45,1,1,0,0,1,38.73,7l2.21-4.34-1.5-.77L37.33,6"/>
  <polyline class="a" points="42.59 11.87 43.62 12.95 47.39 9.31 47.41 9.33 45.09 14.45 46.48 15.9 51.68 10.88 50.64 9.81 47.04 13.29 47.03 13.27 49.16 8.28 47.79 6.85 42.59 11.87"/>
  <path class="a" d="M55.95,18.93a4.34,4.34,0,0,0-.52-1.87c-0.64-1.32-2.37-2.46-4.76-1.3-2.06,1-2.78,2.89-1.92,4.68a5.79,5.79,0,0,0,1,1.51l1.32-.72a3,3,0,0,1-1-1.17,2.08,2.08,0,0,1,1.28-2.74c1.32-.64,2.46-0.38,3,0.63a2.66,2.66,0,0,1,.27,1.51l1.31-.54"/>
  <polyline class="a" points="50.13 24.4 50.43 26.06 57.53 24.81 57.24 23.15 50.13 24.4"/>
  <polyline class="a" points="50.63 28.68 50.35 32.75 51.65 32.85 51.82 30.46 57.72 30.88 57.84 29.17 50.63 28.68"/>
  <polyline class="a" points="6.47 45.55 8.52 47.97 8.98 47.57 7.34 45.65 9.54 43.8 11.02 45.59 11.48 45.19 9.99 43.41 11.96 41.75 13.52 43.62 13.98 43.23 12.01 40.88 6.47 45.55"/>
  <polyline class="a" points="11.61 50.91 12.11 51.24 15.67 45.94 15.69 45.95 14.64 52.94 15.32 53.42 19.36 47.41 18.87 47.08 15.27 52.42 15.26 52.41 16.33 45.38 15.65 44.91 11.61 50.91"/>
  <path class="a" d="M22.8,52.78L24,53.13l-0.69,2.44a2.11,2.11,0,0,1-1-.06c-1.83-.51-1.93-2.4-1.56-3.66,0.63-2.19,2.18-2.57,3.17-2.28a2.87,2.87,0,0,1,1.34.85l0.23-.66A4.18,4.18,0,0,0,24.13,49c-1.94-.55-3.49.84-4,2.61-0.38,1.32-.44,3.79,2,4.49a3.32,3.32,0,0,0,1.72.08l1-3.44L23,52.21l-0.17.56"/>
  <polyline class="a" points="28.04 56.83 31.04 56.83 31.03 56.24 28.68 56.24 28.68 49.61 28.04 49.61 28.04 56.83"/>
  <path class="a" d="M34,56.51l0.61-.18,0.08-2.11,2.77-.78,1.15,1.74L39.25,55l-4.3-6.31-0.65.19L34,56.51m0.82-7h0l2.27,3.44-2.4.71Z"/>
  <polyline class="a" points="42.34 53.44 42.84 53.1 39.37 47.76 39.39 47.75 45.41 51.44 46.1 51.01 42.17 44.93 41.66 45.27 45.15 50.65 45.13 50.66 39.1 46.93 38.4 47.36 42.34 53.44"/>
  <path class="a" d="M49.69,47.61l0.69-.86c1.43-1.85.79-3.66-.87-5-1.84-1.44-3.46-1.27-4.94.63L44,43.16l5.7,4.45M44.86,43l0.34-.41c1.48-1.93,3.08-.92,4-0.2C50.6,43.52,51,45,50,46.22l-0.41.53Z"/>
  <rect class="a" x="72.59" width="0.75" height="56.99"/>
</svg>
