<svg xmlns="http://www.w3.org/2000/svg" viewBox="0 0 304.93 153.61">
  <defs>
    <style>
      .a {
        fill: #9c9e9f;
      }

      .b {
        fill: #1a171b;
      }

      .c {
        fill: none;
      }

      .d {
        fill: #c6c7c8;
      }
    </style>
  </defs>
  <title>CtC+CtI-black</title>
  <g>
    <g>
      <rect class="a" x="219.03" y="122.67" width="4.1" height="23.72"/>
      <rect class="a" x="300.81" y="133.87" width="4.1" height="19.67"/>
      <rect class="a" x="293.54" y="15.55" width="11.17" height="3.43"/>
      <polygon class="a" points="211.68 95.17 203.1 95.17 203.07 82.02 199.01 82.02 199.01 112.6 203.07 112.6 203.1 98.6 211.68 98.6 211.68 95.17"/>
      <path class="a" d="M275.12,105.68a9.64,9.64,0,0,1-3.32,2.89,11.23,11.23,0,0,1-9.66,0,9.62,9.62,0,0,1-3.32-2.89,12.29,12.29,0,0,1-1.9-4,17.4,17.4,0,0,1-.07-8.84h-4.17a19.89,19.89,0,0,0,.46,10.29,15.1,15.1,0,0,0,2.78,5.12,13.27,13.27,0,0,0,4.61,3.53,16.44,16.44,0,0,0,12.85,0,13.28,13.28,0,0,0,4.62-3.53,14.69,14.69,0,0,0,2-3.1h-4.48c-0.12.19-.24,0.39-0.37,0.57"/>
      <path class="a" d="M301.12,86.6A13.58,13.58,0,0,0,296.51,83a16.23,16.23,0,0,0-12.85,0A13.57,13.57,0,0,0,279,86.6,14.78,14.78,0,0,0,276.92,90h4.42c0.18-.31.38-0.61,0.59-0.91a9.7,9.7,0,0,1,3.32-2.89,11.25,11.25,0,0,1,9.66,0,9.74,9.74,0,0,1,3.32,2.89,12.35,12.35,0,0,1,1.9,4,17.57,17.57,0,0,1,0,9.12v0h4.18a20,20,0,0,0-.39-10.63,15.14,15.14,0,0,0-2.78-5.12"/>
      <path class="a" d="M259.45,138.91a18.49,18.49,0,0,1-.21-2.27c0-.77-0.07-1.53-0.13-2.27a19.41,19.41,0,0,0-.37-2.14,6.47,6.47,0,0,0-.73-1.86,4.73,4.73,0,0,0-1.34-1.43,5.52,5.52,0,0,0-2.18-.86V128a6.55,6.55,0,0,0,4.07-2.87,8.51,8.51,0,0,0,1-2.49h-4a4.17,4.17,0,0,1-.37,1,4.53,4.53,0,0,1-1.55,1.67,6,6,0,0,1-2.26.83c-0.86.14-4.11,0.21-5.06,0.21h-7.71v3.43h11.52a5.5,5.5,0,0,1,2.41.45,4.08,4.08,0,0,1,1.47,1.2,5,5,0,0,1,.82,1.75c0.17,0.67.32,1.38,0.43,2.12a15,15,0,0,1,.26,2.27q0,1.16.08,2.16a13,13,0,0,0,.2,1.82,2.53,2.53,0,0,0,.58,1.28h4.57a5.17,5.17,0,0,1-1-1.78,13.76,13.76,0,0,1-.5-2.12"/>
      <path class="a" d="M188.17,127.51a4.94,4.94,0,0,1,1.1,2.09h4.24a7.06,7.06,0,0,0-2.42-4.83,10.2,10.2,0,0,0-6.88-2.14H172.29v3.42H184a5.34,5.34,0,0,1,4.18,1.46"/>
      <polygon class="a" points="258.54 41.68 258.54 66.68 258.45 65.93 253.98 58.73 249.4 58.73 257.93 72.5 262.45 72.5 262.45 41.68 258.54 41.68"/>
      <polygon class="a" points="276.74 1.42 272.35 1.42 272.35 32.24 276.26 32.24 276.26 8.16 276.35 8.16 280.58 15.01 285.16 15.01 276.74 1.42"/>
    </g>
    <g>
      <polygon class="a" points="272.39 126.12 272.48 126.12 276.37 136.92 280.47 136.92 274.76 122.44 270.24 122.44 264.56 136.92 268.44 136.92 272.39 126.12"/>
      <polygon class="a" points="227.75 45.04 235.09 45.04 235.09 45.04 239.18 45.04 239.18 45.04 247.5 45.04 247.5 41.61 227.75 41.61 227.75 45.04"/>
      <rect class="a" x="293.64" y="109.31" width="11.3" height="3.43"/>
      <path class="a" d="M277.93,45.89a13.56,13.56,0,0,0-9.25-4.8v3.48a9.1,9.1,0,0,1,3,1A9.7,9.7,0,0,1,275,48.42a12.33,12.33,0,0,1,1.9,4,17.49,17.49,0,0,1,0,9.12,12.3,12.3,0,0,1-1.9,4,9.69,9.69,0,0,1-3.32,2.89,9.12,9.12,0,0,1-3,1v3.44a13.83,13.83,0,0,0,4.63-1.22,13.4,13.4,0,0,0,4.61-3.53A15.14,15.14,0,0,0,280.71,63a20,20,0,0,0,0-12,15.14,15.14,0,0,0-2.78-5.12"/>
      <path class="a" d="M219.66,86.3a15.13,15.13,0,0,0-2.78,5.12,20,20,0,0,0,0,12,15.11,15.11,0,0,0,2.78,5.12,13.29,13.29,0,0,0,4.61,3.53,13.89,13.89,0,0,0,4.79,1.23v-3.42a9.2,9.2,0,0,1-3.2-1,9.66,9.66,0,0,1-3.32-2.89,12.3,12.3,0,0,1-1.9-4,17.54,17.54,0,0,1,0-9.12,12.32,12.32,0,0,1,1.9-4,9.67,9.67,0,0,1,3.32-2.89,9.15,9.15,0,0,1,3.2-1V81.49a13.79,13.79,0,0,0-4.79,1.25,13.56,13.56,0,0,0-4.61,3.56"/>
      <path class="a" d="M186.82,150.23a10.22,10.22,0,0,1-4.75-1,9.25,9.25,0,0,1-3.26-2.76,11.76,11.76,0,0,1-1.88-4.07,18.67,18.67,0,0,1-.51-3h-4.14a20.64,20.64,0,0,0,.83,4.65,14.31,14.31,0,0,0,2.65,5.05,12.23,12.23,0,0,0,4.45,3.36,14.94,14.94,0,0,0,6.26,1.22,15.32,15.32,0,0,0,6.22-1.18v-4.3a8.15,8.15,0,0,1-2.27,1.43,9.17,9.17,0,0,1-3.6.67"/>
      <rect class="a" x="294.54" y="52.11" width="3.54" height="9.85"/>
      <path class="a" d="M287.66,4.86a12.36,12.36,0,0,0,4.48,3.39,15,15,0,0,0,6.3,1.23,15.41,15.41,0,0,0,6.27-1.19V4a8.27,8.27,0,0,1-2.29,1.44,9.27,9.27,0,0,1-3.63.67A10.26,10.26,0,0,1,294,5a9.26,9.26,0,0,1-3.28-2.78c-0.18-.25-0.35-0.51-0.51-0.77h-4.59A14,14,0,0,0,287.66,4.86Z"/>
      <path class="a" d="M286.45,146.46a15.42,15.42,0,0,0,6.27-1.19v-4.33a8.37,8.37,0,0,1-2.29,1.44,9.29,9.29,0,0,1-3.63.67,12.38,12.38,0,0,1-2.26-.21v3.52A18.94,18.94,0,0,0,286.45,146.46Z"/>
      <polygon class="a" points="275.97 82.3 256.22 82.3 256.22 85.72 264.04 85.72 264.04 96.82 268.14 96.82 268.14 85.72 275.97 85.72 275.97 82.3"/>
      <polygon class="a" points="251.38 140.84 247.16 140.84 247.18 140.86 236.74 140.86 236.75 140.84 232.78 140.84 229.16 150.07 229.14 150.1 212.52 150.1 212.52 153.47 227.82 153.47 227.81 153.5 232 153.5 235.44 144.29 248.47 144.29 251.83 153.5 256.36 153.5 251.38 140.84"/>
      <path class="a" d="M236.78,68.46a10.11,10.11,0,0,1,4.76-1,9.64,9.64,0,0,1,5.63,1.64l0.33,0.26V65.1a13.2,13.2,0,0,0-1.31-.47,16,16,0,0,0-4.61-.65,14.92,14.92,0,0,0-6.32,1.27,13.07,13.07,0,0,0-4.61,3.47,14.83,14.83,0,0,0-2.21,3.6h4.39a11.56,11.56,0,0,1,.69-1.07A9.36,9.36,0,0,1,236.78,68.46Z"/>
    </g>
    <g>
      <polygon class="a" points="202.92 139.14 209.49 139.14 209.49 135.71 202.92 135.71 202.92 125.99 213.91 125.99 213.91 122.57 198.83 122.57 198.83 146.3 202.92 146.3 202.92 139.14"/>
      <polygon class="a" points="290.56 45.17 304.89 45.17 304.89 41.74 286.46 41.74 286.46 72.32 304.88 72.32 304.88 68.89 290.56 68.89 290.56 45.17"/>
      <rect class="a" x="227.59" y="126.25" width="6.76" height="3.43"/>
      <path class="a" d="M299,122.7a14.83,14.83,0,0,0-6.27,1.26,13,13,0,0,0-4.57,3.45,15.08,15.08,0,0,0-2.78,5.12,19.6,19.6,0,0,0-.87,4.45h4.09a17.16,17.16,0,0,1,.54-3.1,11.84,11.84,0,0,1,1.88-4,9.32,9.32,0,0,1,3.23-2.76,10,10,0,0,1,4.72-1,9.58,9.58,0,0,1,5.59,1.62l0.33,0.26v-4.19a12.87,12.87,0,0,0-1.3-.47,15.9,15.9,0,0,0-4.57-.64"/>
      <polygon class="a" points="243.59 82.09 243.59 107.08 243.5 106.34 231.45 86.91 231.45 94.29 242.98 112.91 247.5 112.91 247.5 82.09 243.59 82.09"/>
      <path class="a" d="M241.53,52.6a9.65,9.65,0,0,1,5.63,1.64l0.33,0.26V50.27a13.71,13.71,0,0,0-1.31-.47,16.1,16.1,0,0,0-4.61-.65,17.61,17.61,0,0,0-2.26.16v3.5A12.47,12.47,0,0,1,241.53,52.6Z"/>
      <path class="a" d="M265.08,1.94a13,13,0,0,0-4.61,3.48,15.21,15.21,0,0,0-2.81,5.16,20.46,20.46,0,0,0-1,6.32,21.61,21.61,0,0,0,.89,6.3,14.51,14.51,0,0,0,2.67,5.09,12.35,12.35,0,0,0,4.48,3.39c0.3,0.13.62,0.24,0.93,0.36V27.92a9.1,9.1,0,0,1-2.35-2.23,11.86,11.86,0,0,1-1.89-4.1,19.79,19.79,0,0,1-.61-5,17.67,17.67,0,0,1,.61-4.66,12,12,0,0,1,1.89-4,9.26,9.26,0,0,1,2.35-2.24v-4C265.48,1.79,265.27,1.85,265.08,1.94Z"/>
      <polygon class="a" points="304.68 24.73 285.92 24.73 285.92 28.16 293.25 28.16 293.25 32.22 297.35 32.22 297.35 28.16 304.68 28.16 304.68 24.73"/>
      <path class="a" d="M270.15,148.83a22.44,22.44,0,0,0,.46,4.59h4.26a19.85,19.85,0,0,1-.59-4.89,17.78,17.78,0,0,1,.49-4.15h-4.16A21.22,21.22,0,0,0,270.15,148.83Z"/>
      <rect class="a" x="285.87" y="98.77" width="4.19" height="13.98"/>
    </g>
  </g>
  <g>
    <g>
      <polygon class="b" points="55 98.58 64.96 98.58 64.96 95.22 55 95.22 55 85.67 69.3 85.67 69.3 82.31 50.98 82.31 50.98 105.61 55 105.61 55 98.58"/>
      <polygon class="b" points="117.19 85.67 131.01 85.67 131.01 82.31 113.17 82.31 113.17 112.33 131.14 112.33 131.14 108.96 117.19 108.96 117.19 85.67"/>
      <rect class="b" x="118.99" y="95.21" width="6.63" height="3.36"/>
      <polygon class="b" points="79.87 85.92 79.96 85.92 83.78 96.53 87.8 96.53 82.2 82.31 77.75 82.31 72.18 96.53 75.99 96.53 79.87 85.92"/>
      <rect class="b" x="97.63" y="89.04" width="4.02" height="23.29"/>
      <polygon class="b" points="89.95 85.67 97.64 85.67 97.64 85.67 101.66 85.67 101.66 85.67 109.34 85.67 109.34 82.31 89.95 82.31 89.95 85.67"/>
      <rect class="b" x="149.99" y="99.74" width="4.02" height="12.59"/>
      <polygon class="b" points="161.7 82.31 142.31 82.31 142.31 85.67 149.99 85.67 149.99 96.57 154.01 96.57 154.01 85.67 161.7 85.67 161.7 82.31"/>
      <rect class="b" x="150.15" y="132.77" width="4.03" height="19.31"/>
      <polygon class="b" points="161.38 122.06 142.95 122.06 142.95 125.43 150.15 125.43 150.15 129.41 154.18 129.41 154.18 125.43 161.38 125.43 161.38 122.06"/>
      <path class="b" d="M185.32,86.39a13.29,13.29,0,0,0-4.53-3.49,13.46,13.46,0,0,0-4.55-1.22v3.42a9,9,0,0,1,3,.93,9.56,9.56,0,0,1,3.26,2.84,12.18,12.18,0,0,1,1.86,4,17.16,17.16,0,0,1,0,9,12.15,12.15,0,0,1-1.86,4,9.55,9.55,0,0,1-3.26,2.84,8.94,8.94,0,0,1-3,.94v3.38a13.52,13.52,0,0,0,4.55-1.2,13.09,13.09,0,0,0,4.53-3.47,14.76,14.76,0,0,0,2.73-5,19.57,19.57,0,0,0,0-11.82,14.74,14.74,0,0,0-2.73-5"/>
      <path class="b" d="M163.64,86.39a14.78,14.78,0,0,0-2.73,5,19.61,19.61,0,0,0,0,11.82,14.8,14.8,0,0,0,2.73,5,13.05,13.05,0,0,0,4.53,3.47,13.71,13.71,0,0,0,4.71,1.21v-3.36a9,9,0,0,1-3.14-1,9.5,9.5,0,0,1-3.26-2.84,12.14,12.14,0,0,1-1.87-4,17.16,17.16,0,0,1,0-9,12.18,12.18,0,0,1,1.87-4A9.51,9.51,0,0,1,169.74,86a9,9,0,0,1,3.14-1V81.66a13.59,13.59,0,0,0-4.71,1.23,13.26,13.26,0,0,0-4.53,3.49"/>
      <path class="b" d="M45,108.5a18.71,18.71,0,0,1-.21-2.23q0-1.14-.13-2.23a20.24,20.24,0,0,0-.36-2.1,6.4,6.4,0,0,0-.72-1.83,4.65,4.65,0,0,0-1.32-1.41,5.43,5.43,0,0,0-2.14-.84V97.78a6.43,6.43,0,0,0,4-2.82,8.41,8.41,0,0,0,1-2.44h-4a4.09,4.09,0,0,1-.36,1,4.48,4.48,0,0,1-1.52,1.64,5.85,5.85,0,0,1-2.22.82c-0.85.14-3.56,0.21-4.49,0.21H25V99.5H35.82a5.41,5.41,0,0,1,2.37.44,4,4,0,0,1,1.44,1.18,4.86,4.86,0,0,1,.8,1.72c0.17,0.66.31,1.35,0.42,2.08a15.25,15.25,0,0,1,.25,2.23c0,0.76.05,1.46,0.08,2.12a12.91,12.91,0,0,0,.19,1.79,2.52,2.52,0,0,0,.57,1.26h4.49a5.15,5.15,0,0,1-1-1.74A13.9,13.9,0,0,1,45,108.5"/>
      <path class="b" d="M40.1,87.1a4.87,4.87,0,0,1,1.07,2.05h4.16A6.94,6.94,0,0,0,43,84.41a10,10,0,0,0-6.75-2.1H25v3.37H36A5.24,5.24,0,0,1,40.1,87.1"/>
      <rect class="b" x="24.96" y="102.43" width="3.48" height="9.67"/>
      <path class="b" d="M133.72,124.76a9.49,9.49,0,0,1,5.53,1.61c0.12,0.08.22,0.17,0.33,0.26v-4.15a13.06,13.06,0,0,0-1.29-.46,15.74,15.74,0,0,0-4.52-.64,17.71,17.71,0,0,0-2.22.15V125A12,12,0,0,1,133.72,124.76Z"/>
      <path class="b" d="M127.56,122.62A12.86,12.86,0,0,0,123,126a14.92,14.92,0,0,0-2.75,5.07,20.08,20.08,0,0,0-.94,6.21,21.22,21.22,0,0,0,.88,6.19,14.28,14.28,0,0,0,2.62,5,12.17,12.17,0,0,0,4.4,3.32c0.29,0.13.61,0.24,0.92,0.35v-4a8.93,8.93,0,0,1-2.3-2.19,11.63,11.63,0,0,1-1.85-4,19.32,19.32,0,0,1-.6-4.89,17.29,17.29,0,0,1,.6-4.58,11.79,11.79,0,0,1,1.85-3.92,9.08,9.08,0,0,1,2.3-2.2v-3.92C128,122.46,127.75,122.53,127.56,122.62Z"/>
      <path class="b" d="M133.43,153a15.13,15.13,0,0,0,6.15-1.17v-4.25a8.23,8.23,0,0,1-2.25,1.41,9.15,9.15,0,0,1-3.56.66,12.1,12.1,0,0,1-2.22-.21v3.45A18.28,18.28,0,0,0,133.43,153Z"/>
      <polygon class="b" points="89.12 99.89 70.86 99.89 67.32 108.92 50.95 108.92 50.95 112.29 69.43 112.29 69.43 112.33 70.09 112.33 73.48 103.29 86.27 103.29 89.57 112.33 94.02 112.33 89.12 99.89"/>
      <path class="b" d="M0.82,103.62a14.1,14.1,0,0,0,2.61,5,12,12,0,0,0,4.37,3.3,14.68,14.68,0,0,0,6.15,1.2A15,15,0,0,0,20,111.93v-4.22a8,8,0,0,1-2.23,1.4,9,9,0,0,1-3.54.65,10,10,0,0,1-4.66-1A9.1,9.1,0,0,1,6.41,106a11.54,11.54,0,0,1-1.84-4,18.31,18.31,0,0,1-.44-2.31H0.07A20.24,20.24,0,0,0,.82,103.62Z"/>
      <path class="b" d="M6.41,88.74A9.14,9.14,0,0,1,9.59,86a9.85,9.85,0,0,1,4.64-1,9.4,9.4,0,0,1,5.49,1.6c0.11,0.08.22,0.17,0.33,0.25V82.74a12.68,12.68,0,0,0-1.28-.46,15.63,15.63,0,0,0-4.49-.63,14.56,14.56,0,0,0-6.17,1.24,12.73,12.73,0,0,0-4.49,3.39,14.79,14.79,0,0,0-2.73,5A19.4,19.4,0,0,0,0,96.14H4a16.86,16.86,0,0,1,.55-3.51A11.61,11.61,0,0,1,6.41,88.74Z"/>
    </g>
    <g>
      <polygon class="c" points="100.16 140.13 110.64 140.13 110.62 140.06 100.19 140.06 100.16 140.13"/>
      <g>
        <rect x="24.81" y="122.05" width="4.12" height="4.56"/>
        <rect x="24.81" y="130" width="4.12" height="22.77"/>
      </g>
      <polygon points="39.62 127.27 39.71 127.27 43.22 136.56 46.82 136.56 41.36 122.1 35.72 122.1 35.72 136.56 39.62 136.56 39.62 127.27"/>
      <rect x="35.72" y="140.06" width="3.9" height="12.76"/>
      <polygon points="51.1 147.91 48.13 140.06 44.55 140.06 49.37 152.81 52.88 152.81 57.7 140.06 54.08 140.06 51.1 147.91"/>
      <rect x="62.62" y="140.06" width="3.9" height="12.76"/>
      <polygon points="62.54 127.27 62.62 127.27 62.62 136.56 66.52 136.56 66.52 122.1 60.89 122.1 55.41 136.56 59.02 136.56 62.54 127.27"/>
      <path d="M92.5,124.49q-2.4-2.39-7.08-2.39H80.85v3.44H84q3.51,0,5.13,1.44a5.32,5.32,0,0,1,1.62,4.19,5.39,5.39,0,0,1-1.62,4.22q-1.62,1.46-5.13,1.42H80.85v3.44h4.57q4.68,0,7.08-2.37A10.53,10.53,0,0,0,92.5,124.49Z"/>
      <polygon points="77.96 122.1 73.86 122.1 73.86 152.81 77.98 152.81 77.96 122.1"/>
      <polygon points="96.2 140.06 91.19 152.81 95.4 152.81 98.86 143.57 111.94 143.57 115.32 152.81 119.87 152.81 114.85 140.06 96.2 140.06"/>
      <polygon points="105.4 125.8 105.49 125.8 109.36 136.56 113.47 136.56 107.78 122.1 103.24 122.1 97.57 136.56 101.46 136.56 105.4 125.8"/>
    </g>
  </g>
  <g>
    <polygon class="d" points="112.18 17.03 122.19 17.03 122.19 13.64 112.18 13.64 112.18 4.05 126.56 4.05 126.56 0.66 108.13 0.66 108.13 24.1 112.18 24.1 112.18 17.03"/>
    <polygon class="d" points="174.74 4.05 188.64 4.05 188.64 0.66 170.69 0.66 170.69 30.86 188.76 30.86 188.76 27.47 174.74 27.47 174.74 4.05"/>
    <rect class="d" x="176.54" y="13.65" width="6.67" height="3.38"/>
    <polygon class="d" points="137.19 4.3 137.28 4.3 141.11 14.97 145.16 14.97 139.53 0.66 135.06 0.66 129.45 14.97 133.28 14.97 137.19 4.3"/>
    <rect class="d" x="155.05" y="7.43" width="4.05" height="23.42"/>
    <polygon class="d" points="147.33 4.05 155.06 4.05 155.06 4.05 159.1 4.05 159.1 4.05 166.83 4.05 166.83 0.66 147.33 0.66 147.33 4.05"/>
    <rect class="d" x="207.72" y="18.2" width="4.04" height="12.66"/>
    <polygon class="d" points="219.49 0.66 199.99 0.66 199.99 4.05 207.72 4.05 207.72 15.01 211.77 15.01 211.77 4.05 219.49 4.05 219.49 0.66"/>
    <rect class="d" x="207.3" y="51.42" width="4.05" height="19.42"/>
    <polygon class="d" points="218.58 40.65 200.05 40.65 200.05 44.03 207.3 44.03 207.3 48.03 211.34 48.03 211.34 44.03 218.58 44.03 218.58 40.65"/>
    <rect class="d" x="164.95" y="40.72" width="11.04" height="3.38"/>
    <polygon class="d" points="170.08 53.71 161.6 53.71 161.56 40.72 157.56 40.72 157.56 70.92 161.56 70.92 161.6 57.09 170.08 57.09 170.08 53.71"/>
    <rect class="d" x="164.95" y="67.53" width="11.16" height="3.38"/>
    <path class="d" d="M243.24,4.77A13.34,13.34,0,0,0,234.11,0V3.47a9,9,0,0,1,3,.94,9.56,9.56,0,0,1,3.28,2.85,12.23,12.23,0,0,1,1.87,4,17.25,17.25,0,0,1,0,9,12.21,12.21,0,0,1-1.87,4,9.56,9.56,0,0,1-3.28,2.85,9,9,0,0,1-3,.94v3.39a13.67,13.67,0,0,0,4.58-1.21,13.15,13.15,0,0,0,4.55-3.49A14.87,14.87,0,0,0,246,21.7a19.73,19.73,0,0,0,0-11.88,14.87,14.87,0,0,0-2.75-5.05"/>
    <path class="d" d="M221.44,4.77a14.88,14.88,0,0,0-2.75,5.05,19.73,19.73,0,0,0,0,11.88,14.87,14.87,0,0,0,2.75,5.05A13.13,13.13,0,0,0,226,30.24a13.73,13.73,0,0,0,4.73,1.22V28.08a9.08,9.08,0,0,1-3.16-1,9.55,9.55,0,0,1-3.28-2.85,12.2,12.2,0,0,1-1.87-4,17.25,17.25,0,0,1,0-9,12.22,12.22,0,0,1,1.87-4,9.56,9.56,0,0,1,3.28-2.85,9,9,0,0,1,3.16-1V0A13.65,13.65,0,0,0,226,1.26a13.37,13.37,0,0,0-4.55,3.51"/>
    <path class="d" d="M99.87,64.32a9.62,9.62,0,0,1-3.28,2.85,11.09,11.09,0,0,1-9.54,0,9.57,9.57,0,0,1-3.28-2.85,12.16,12.16,0,0,1-1.87-4,17.15,17.15,0,0,1-.07-8.73H77.72a19.67,19.67,0,0,0,.45,10.17,14.91,14.91,0,0,0,2.75,5,13.11,13.11,0,0,0,4.55,3.49,16.26,16.26,0,0,0,12.69,0,13.16,13.16,0,0,0,4.56-3.49,14.63,14.63,0,0,0,1.94-3.06h-4.43c-0.12.19-.24,0.38-0.37,0.57"/>
    <path class="d" d="M102.73,44.83a13.43,13.43,0,0,0-4.56-3.51,16,16,0,0,0-12.69,0,13.4,13.4,0,0,0-4.55,3.51,14.6,14.6,0,0,0-2.1,3.39H83.2c0.18-.31.38-0.61,0.58-0.89a9.59,9.59,0,0,1,3.28-2.85,11.1,11.1,0,0,1,9.54,0,9.6,9.6,0,0,1,3.28,2.85,12.24,12.24,0,0,1,1.87,4,17.32,17.32,0,0,1,0,9v0h4.13a19.61,19.61,0,0,0,.53-4.55,19.39,19.39,0,0,0-.92-5.94,15,15,0,0,0-2.75-5.05"/>
    <path class="d" d="M102.13,27a19,19,0,0,1-.21-2.24c0-.76-0.07-1.51-0.13-2.24a19.08,19.08,0,0,0-.36-2.11,6.45,6.45,0,0,0-.72-1.84,4.7,4.7,0,0,0-1.32-1.42,5.47,5.47,0,0,0-2.15-.85V16.23a6.45,6.45,0,0,0,4-2.84,8.39,8.39,0,0,0,1-2.45h-4a4.27,4.27,0,0,1-.36,1,4.55,4.55,0,0,1-1.53,1.65,5.9,5.9,0,0,1-2.24.83c-0.85.14-3.58,0.21-4.51,0.21H82V18H92.89a5.43,5.43,0,0,1,2.39.44,4,4,0,0,1,1.45,1.18,4.91,4.91,0,0,1,.81,1.73c0.17,0.66.31,1.36,0.43,2.09a15.06,15.06,0,0,1,.26,2.24c0,0.76.05,1.47,0.08,2.14a12.63,12.63,0,0,0,.19,1.79,2.51,2.51,0,0,0,.57,1.27h4.52a5.16,5.16,0,0,1-1-1.75,13.8,13.8,0,0,1-.49-2.1"/>
    <path class="d" d="M97.19,5.49a4.85,4.85,0,0,1,1.08,2.07h4.19a7,7,0,0,0-2.39-4.77A10.06,10.06,0,0,0,93.27.66H82V4H93.06a5.26,5.26,0,0,1,4.13,1.44"/>
    <rect class="d" x="81.96" y="20.9" width="3.5" height="9.72"/>
    <polygon class="d" points="129.13 40.32 129.13 65 129.04 64.26 124.63 57.15 120.11 57.15 128.53 70.75 132.99 70.75 132.99 40.32 129.13 40.32"/>
    <polygon class="d" points="114.2 40.32 109.86 40.32 109.86 70.75 113.73 70.75 113.73 46.98 113.81 46.98 118 53.73 122.52 53.73 114.2 40.32"/>
    <polygon class="d" points="147.69 40.45 147.69 65.14 147.61 64.4 135.72 45.22 135.72 52.51 147.1 70.89 151.56 70.89 151.56 40.45 147.69 40.45"/>
    <path class="d" d="M190.77,43.36A9.53,9.53,0,0,1,196.33,45l0.33,0.26V41.06a12.63,12.63,0,0,0-1.3-.47,15.81,15.81,0,0,0-4.55-.64,17.57,17.57,0,0,0-2.24.15v3.46A12.06,12.06,0,0,1,190.77,43.36Z"/>
    <path class="d" d="M184.57,41.21A12.9,12.9,0,0,0,180,44.64a15,15,0,0,0-2.77,5.09,20.17,20.17,0,0,0-.94,6.24,21.31,21.31,0,0,0,.88,6.22,14.32,14.32,0,0,0,2.64,5,12.19,12.19,0,0,0,4.42,3.34c0.3,0.13.61,0.24,0.92,0.35V66.85a9,9,0,0,1-2.32-2.2A11.73,11.73,0,0,1,181,60.6a19.5,19.5,0,0,1-.6-4.92,17.44,17.44,0,0,1,.6-4.6,11.86,11.86,0,0,1,1.87-3.94,9.15,9.15,0,0,1,2.32-2.21V41C185,41.05,184.76,41.12,184.57,41.21Z"/>
    <path class="d" d="M190.47,71.79a15.24,15.24,0,0,0,6.19-1.17V66.34a8.23,8.23,0,0,1-2.26,1.42,9.19,9.19,0,0,1-3.58.66,12.07,12.07,0,0,1-2.24-.21v3.47A17.93,17.93,0,0,0,190.47,71.79Z"/>
    <polygon class="d" points="146.49 18.35 128.13 18.35 124.57 27.43 108.11 27.43 108.11 30.82 126.68 30.82 126.68 30.86 127.36 30.86 130.76 21.77 143.62 21.77 146.94 30.86 151.41 30.86 146.49 18.35"/>
    <path class="d" d="M56.62,55.8a22.16,22.16,0,0,0,.45,4.53h4.21a19.46,19.46,0,0,1-.58-4.83,17.59,17.59,0,0,1,.48-4.1H57.07A21,21,0,0,0,56.62,55.8Z"/>
    <path class="d" d="M66.38,44.21a10,10,0,0,1,4.7-1,9.53,9.53,0,0,1,5.56,1.62L77,45.06V40.89a13.68,13.68,0,0,0-1.3-.47,15.84,15.84,0,0,0-4.55-.64A14.77,14.77,0,0,0,64.88,41a12.9,12.9,0,0,0-4.55,3.43A14.47,14.47,0,0,0,58.14,48h4.34A10.94,10.94,0,0,1,63.16,47,9.23,9.23,0,0,1,66.38,44.21Z"/>
    <path class="d" d="M60.13,67a12.19,12.19,0,0,0,4.42,3.34,14.84,14.84,0,0,0,6.22,1.21A15.19,15.19,0,0,0,77,70.43V66.16a8.16,8.16,0,0,1-2.26,1.42,9.16,9.16,0,0,1-3.58.66,10.12,10.12,0,0,1-4.72-1,9.16,9.16,0,0,1-3.24-2.74c-0.18-.24-0.34-0.5-0.49-0.75H58.12A13.75,13.75,0,0,0,60.13,67Z"/>
    <path class="d" d="M57.68,22.1a14.28,14.28,0,0,0,2.62,5,12.16,12.16,0,0,0,4.39,3.32,14.79,14.79,0,0,0,6.18,1.21A15.09,15.09,0,0,0,77,30.46V26.21a8.09,8.09,0,0,1-2.25,1.41,9.07,9.07,0,0,1-3.56.66,10.05,10.05,0,0,1-4.69-1,9.13,9.13,0,0,1-3.22-2.73,11.65,11.65,0,0,1-1.85-4A18.39,18.39,0,0,1,61,18.18H56.93A20.19,20.19,0,0,0,57.68,22.1Z"/>
    <path class="d" d="M63.31,7.13A9.21,9.21,0,0,1,66.5,4.4a9.93,9.93,0,0,1,4.67-1A9.46,9.46,0,0,1,76.69,5c0.12,0.08.22,0.17,0.33,0.25V1.1A13,13,0,0,0,75.73.64,15.77,15.77,0,0,0,71.21,0,14.64,14.64,0,0,0,65,1.25a12.8,12.8,0,0,0-4.52,3.41,14.83,14.83,0,0,0-2.75,5.06,19.36,19.36,0,0,0-.89,4.86h4A17.1,17.1,0,0,1,61.45,11,11.75,11.75,0,0,1,63.31,7.13Z"/>
  </g>
</svg>
