<?xml version="1.0" encoding="utf-8"?>
<!-- Generator: Adobe Illustrator 19.2.0, SVG Export Plug-In . SVG Version: 6.00 Build 0)  -->
<svg version="1.1" id="Layer_1" xmlns="http://www.w3.org/2000/svg" xmlns:xlink="http://www.w3.org/1999/xlink" x="0px" y="0px"
	 viewBox="0 0 304.9 153.6" style="enable-background:new 0 0 304.9 153.6;" xml:space="preserve">
<title>CtC+CtI-black</title>
<g>
	<g>
		<rect x="219" y="122.7" width="4.1" height="23.7"/>
		<rect x="300.8" y="133.9" width="4.1" height="19.7"/>
		<rect x="293.5" y="15.5" width="11.2" height="3.4"/>
		<polygon points="211.7,95.2 203.1,95.2 203.1,82 199,82 199,112.6 203.1,112.6 203.1,98.6 211.7,98.6 		"/>
		<path d="M275.1,105.7c-0.9,1.2-2,2.2-3.3,2.9c-3.1,1.5-6.6,1.5-9.7,0c-1.3-0.7-2.5-1.7-3.3-2.9c-0.9-1.2-1.5-2.6-1.9-4
			c-0.8-2.9-0.8-5.9-0.1-8.8h-4.2c-0.8,3.4-0.6,7,0.5,10.3c0.6,1.9,1.5,3.6,2.8,5.1c1.3,1.5,2.8,2.7,4.6,3.5c4.1,1.7,8.7,1.7,12.9,0
			c1.8-0.8,3.4-2,4.6-3.5c0.8-0.9,1.5-2,2-3.1h-4.5C275.4,105.3,275.3,105.5,275.1,105.7"/>
		<path d="M301.1,86.6c-1.3-1.5-2.8-2.7-4.6-3.6c-4.1-1.8-8.7-1.8-12.9,0c-1.8,0.8-3.4,2.1-4.7,3.6c-0.8,1-1.5,2.2-2.1,3.4h4.4
			c0.2-0.3,0.4-0.6,0.6-0.9c0.9-1.2,2-2.2,3.3-2.9c3.1-1.5,6.6-1.5,9.7,0c1.3,0.7,2.4,1.7,3.3,2.9c0.9,1.2,1.5,2.6,1.9,4
			c0.8,3,0.8,6.1,0,9.1l0,0h4.2c0.8-3.5,0.7-7.2-0.4-10.6c-0.6-1.9-1.5-3.6-2.8-5.1"/>
		<path d="M259.5,138.9c-0.1-0.8-0.2-1.5-0.2-2.3c0-0.8-0.1-1.5-0.1-2.3c-0.1-0.7-0.2-1.4-0.4-2.1c-0.1-0.7-0.4-1.3-0.7-1.9
			c-0.3-0.6-0.8-1.1-1.3-1.4c-0.7-0.4-1.4-0.7-2.2-0.9V128c1.7-0.4,3.1-1.4,4.1-2.9c0.5-0.8,0.8-1.6,1-2.5h-4
			c-0.1,0.3-0.2,0.7-0.4,1c-0.4,0.7-0.9,1.3-1.6,1.7c-0.7,0.4-1.5,0.7-2.3,0.8c-0.9,0.1-4.1,0.2-5.1,0.2h-7.7v3.4h11.5
			c0.8,0,1.7,0.1,2.4,0.4c0.6,0.3,1.1,0.7,1.5,1.2c0.4,0.5,0.7,1.1,0.8,1.8c0.2,0.7,0.3,1.4,0.4,2.1c0.1,0.7,0.2,1.5,0.3,2.3
			c0,0.8,0,1.5,0.1,2.2c0,0.6,0.1,1.2,0.2,1.8c0.1,0.5,0.3,0.9,0.6,1.3h4.6c-0.4-0.5-0.8-1.1-1-1.8
			C259.7,140.4,259.6,139.6,259.5,138.9"/>
		<path d="M188.2,127.5c0.5,0.6,0.9,1.3,1.1,2.1h4.2c-0.1-1.9-1-3.6-2.4-4.8c-2-1.5-4.4-2.3-6.9-2.1h-11.9v3.4H184
			C185.5,125.9,187.1,126.4,188.2,127.5"/>
		<polygon points="258.5,41.7 258.5,66.7 258.5,65.9 254,58.7 249.4,58.7 257.9,72.5 262.5,72.5 262.5,41.7 		"/>
		<polygon points="276.7,1.4 272.4,1.4 272.4,32.2 276.3,32.2 276.3,8.2 276.4,8.2 280.6,15 285.2,15 		"/>
	</g>
	<g>
		<polygon points="272.4,126.1 272.5,126.1 276.4,136.9 280.5,136.9 274.8,122.4 270.2,122.4 264.6,136.9 268.4,136.9 		"/>
		<polygon points="227.8,45 235.1,45 235.1,45 239.2,45 239.2,45 247.5,45 247.5,41.6 227.8,41.6 		"/>
		<rect x="293.6" y="109.3" width="11.3" height="3.4"/>
		<path d="M277.9,45.9c-2.3-2.8-5.7-4.5-9.2-4.8v3.5c1.1,0.2,2.1,0.5,3,1c1.3,0.7,2.4,1.7,3.3,2.8c0.9,1.2,1.5,2.6,1.9,4
			c0.8,3,0.8,6.1,0,9.1c-0.4,1.4-1,2.8-1.9,4c-0.9,1.2-2,2.2-3.3,2.9c-0.9,0.5-1.9,0.8-3,1v3.4c1.6-0.1,3.2-0.5,4.6-1.2
			c1.8-0.8,3.3-2,4.6-3.5c1.3-1.5,2.2-3.2,2.8-5.1c1.2-3.9,1.2-8.1,0-12C280.1,49.1,279.2,47.4,277.9,45.9"/>
		<path d="M219.7,86.3c-1.2,1.5-2.2,3.2-2.8,5.1c-1.2,3.9-1.2,8.1,0,12c0.6,1.9,1.5,3.6,2.8,5.1c1.3,1.5,2.8,2.7,4.6,3.5
			c1.5,0.7,3.1,1.1,4.8,1.2v-3.4c-1.1-0.1-2.2-0.5-3.2-1c-1.3-0.7-2.5-1.7-3.3-2.9c-0.9-1.2-1.5-2.6-1.9-4c-0.8-3-0.8-6.1,0-9.1
			c0.4-1.4,1-2.8,1.9-4c0.9-1.2,2-2.2,3.3-2.9c1-0.5,2.1-0.9,3.2-1v-3.5c-1.7,0.1-3.3,0.5-4.8,1.2C222.5,83.6,220.9,84.8,219.7,86.3
			"/>
		<path d="M186.8,150.2c-1.6,0.1-3.3-0.3-4.8-1c-1.3-0.7-2.4-1.6-3.3-2.8c-0.9-1.2-1.5-2.6-1.9-4.1c-0.3-1-0.4-2-0.5-3h-4.1
			c0.1,1.6,0.4,3.1,0.8,4.6c0.5,1.8,1.4,3.6,2.6,5.1c1.2,1.4,2.7,2.6,4.4,3.4c2,0.9,4.1,1.3,6.3,1.2c2.1,0,4.3-0.4,6.2-1.2v-4.3
			c-0.7,0.6-1.4,1.1-2.3,1.4C189.3,150.1,188.1,150.3,186.8,150.2"/>
		<rect x="294.5" y="52.1" width="3.5" height="9.8"/>
		<path d="M287.7,4.9c1.2,1.5,2.7,2.6,4.5,3.4c2,0.9,4.1,1.3,6.3,1.2c2.2,0,4.3-0.4,6.3-1.2V4c-0.7,0.6-1.5,1.1-2.3,1.4
			c-1.2,0.5-2.4,0.7-3.6,0.7c-1.7,0-3.3-0.4-4.8-1.1c-1.3-0.7-2.4-1.6-3.3-2.8c-0.2-0.3-0.4-0.5-0.5-0.8h-4.6
			C286.1,2.7,286.8,3.8,287.7,4.9z"/>
		<path d="M286.5,146.5c2.2,0,4.3-0.4,6.3-1.2v-4.3c-0.7,0.6-1.5,1.1-2.3,1.4c-1.2,0.5-2.4,0.7-3.6,0.7c-0.8,0-1.5-0.1-2.3-0.2v3.5
			C285.2,146.4,285.8,146.5,286.5,146.5z"/>
		<polygon points="276,82.3 256.2,82.3 256.2,85.7 264,85.7 264,96.8 268.1,96.8 268.1,85.7 276,85.7 		"/>
		<polygon points="251.4,140.8 247.2,140.8 247.2,140.9 236.7,140.9 236.8,140.8 232.8,140.8 229.2,150.1 229.1,150.1 212.5,150.1 
			212.5,153.5 227.8,153.5 227.8,153.5 232,153.5 235.4,144.3 248.5,144.3 251.8,153.5 256.4,153.5 		"/>
		<path d="M236.8,68.5c1.5-0.7,3.1-1.1,4.8-1c2-0.1,4,0.5,5.6,1.6l0.3,0.3v-4.3c-0.4-0.2-0.9-0.3-1.3-0.5c-1.5-0.4-3-0.7-4.6-0.7
			c-2.2,0-4.3,0.4-6.3,1.3c-1.8,0.8-3.4,2-4.6,3.5c-0.9,1.1-1.6,2.3-2.2,3.6h4.4c0.2-0.4,0.4-0.7,0.7-1.1
			C234.4,70.1,235.5,69.1,236.8,68.5z"/>
	</g>
	<g>
		<polygon points="202.9,139.1 209.5,139.1 209.5,135.7 202.9,135.7 202.9,126 213.9,126 213.9,122.6 198.8,122.6 198.8,146.3 
			202.9,146.3 		"/>
		<polygon points="290.6,45.2 304.9,45.2 304.9,41.7 286.5,41.7 286.5,72.3 304.9,72.3 304.9,68.9 290.6,68.9 		"/>
		<rect x="227.6" y="126.2" width="6.8" height="3.4"/>
		<path d="M299,122.7c-2.2,0-4.3,0.4-6.3,1.3c-1.8,0.8-3.3,2-4.6,3.4c-1.3,1.5-2.2,3.2-2.8,5.1c-0.5,1.4-0.8,2.9-0.9,4.4h4.1
			c0.1-1,0.3-2.1,0.5-3.1c0.4-1.4,1-2.8,1.9-4c0.8-1.2,2-2.1,3.2-2.8c1.5-0.7,3.1-1.1,4.7-1c2-0.1,3.9,0.5,5.6,1.6l0.3,0.3v-4.2
			c-0.4-0.2-0.9-0.3-1.3-0.5C302.1,122.9,300.6,122.7,299,122.7"/>
		<polygon points="243.6,82.1 243.6,107.1 243.5,106.3 231.4,86.9 231.4,94.3 243,112.9 247.5,112.9 247.5,82.1 		"/>
		<path d="M241.5,52.6c2-0.1,4,0.5,5.6,1.6l0.3,0.3v-4.2c-0.4-0.2-0.9-0.3-1.3-0.5c-1.5-0.4-3-0.7-4.6-0.7c-0.8,0-1.5,0.1-2.3,0.2
			v3.5C240,52.7,240.8,52.6,241.5,52.6z"/>
		<path d="M265.1,1.9c-1.8,0.8-3.4,2-4.6,3.5c-1.3,1.5-2.2,3.3-2.8,5.2c-0.7,2-1,4.2-1,6.3c0,2.1,0.3,4.3,0.9,6.3
			c0.5,1.9,1.4,3.6,2.7,5.1c1.2,1.5,2.7,2.6,4.5,3.4c0.3,0.1,0.6,0.2,0.9,0.4v-4.1c-0.9-0.6-1.7-1.4-2.4-2.2
			c-0.9-1.2-1.5-2.6-1.9-4.1c-0.4-1.6-0.6-3.3-0.6-5c0-1.6,0.2-3.1,0.6-4.7c0.4-1.4,1-2.8,1.9-4c0.6-0.9,1.4-1.6,2.4-2.2v-4
			C265.5,1.8,265.3,1.8,265.1,1.9z"/>
		<polygon points="304.7,24.7 285.9,24.7 285.9,28.2 293.2,28.2 293.2,32.2 297.4,32.2 297.4,28.2 304.7,28.2 		"/>
		<path d="M270.1,148.8c0,1.5,0.1,3.1,0.5,4.6h4.3c-0.4-1.6-0.6-3.2-0.6-4.9c0-1.4,0.2-2.8,0.5-4.1h-4.2
			C270.3,145.8,270.1,147.3,270.1,148.8z"/>
		<rect x="285.9" y="98.8" width="4.2" height="14"/>
	</g>
</g>
<g>
	<g>
		<polygon points="55,98.6 65,98.6 65,95.2 55,95.2 55,85.7 69.3,85.7 69.3,82.3 51,82.3 51,105.6 55,105.6 		"/>
		<polygon points="117.2,85.7 131,85.7 131,82.3 113.2,82.3 113.2,112.3 131.1,112.3 131.1,109 117.2,109 		"/>
		<rect x="119" y="95.2" width="6.6" height="3.4"/>
		<polygon points="79.9,85.9 80,85.9 83.8,96.5 87.8,96.5 82.2,82.3 77.8,82.3 72.2,96.5 76,96.5 		"/>
		<rect x="97.6" y="89" width="4" height="23.3"/>
		<polygon points="89.9,85.7 97.6,85.7 97.6,85.7 101.7,85.7 101.7,85.7 109.3,85.7 109.3,82.3 89.9,82.3 		"/>
		<rect x="150" y="99.7" width="4" height="12.6"/>
		<polygon points="161.7,82.3 142.3,82.3 142.3,85.7 150,85.7 150,96.6 154,96.6 154,85.7 161.7,85.7 		"/>
		<rect x="150.1" y="132.8" width="4" height="19.3"/>
		<polygon points="161.4,122.1 142.9,122.1 142.9,125.4 150.1,125.4 150.1,129.4 154.2,129.4 154.2,125.4 161.4,125.4 		"/>
		<path d="M185.3,86.4c-1.2-1.5-2.8-2.7-4.5-3.5c-1.4-0.7-3-1.1-4.6-1.2v3.4c1,0.1,2.1,0.4,3,0.9c1.3,0.7,2.4,1.7,3.3,2.8
			c0.9,1.2,1.5,2.6,1.9,4c0.8,2.9,0.8,6.1,0,9c-0.4,1.4-1,2.8-1.9,4c-0.9,1.2-2,2.2-3.3,2.8c-0.9,0.5-2,0.8-3,0.9v3.4
			c1.6-0.1,3.1-0.5,4.6-1.2c1.7-0.8,3.3-2,4.5-3.5c1.2-1.5,2.2-3.2,2.7-5c1.2-3.8,1.2-8,0-11.8c-0.6-1.8-1.5-3.5-2.7-5"/>
		<path d="M163.6,86.4c-1.2,1.5-2.2,3.2-2.7,5c-1.2,3.8-1.2,8,0,11.8c0.6,1.8,1.5,3.5,2.7,5c1.2,1.5,2.8,2.7,4.5,3.5
			c1.5,0.7,3.1,1.1,4.7,1.2v-3.4c-1.1-0.1-2.2-0.5-3.1-1c-1.3-0.7-2.4-1.7-3.3-2.8c-0.9-1.2-1.5-2.6-1.9-4c-0.8-2.9-0.8-6.1,0-9
			c0.4-1.4,1-2.8,1.9-4c0.9-1.1,2-2,3.3-2.7c1-0.5,2-0.9,3.1-1v-3.3c-1.6,0.1-3.2,0.5-4.7,1.2C166.4,83.7,164.9,84.9,163.6,86.4"/>
		<path d="M45,108.5c-0.1-0.7-0.2-1.5-0.2-2.2c0-0.8,0-1.5-0.1-2.2c-0.1-0.7-0.2-1.4-0.4-2.1c-0.1-0.6-0.4-1.3-0.7-1.8
			c-0.3-0.6-0.8-1-1.3-1.4c-0.6-0.4-1.4-0.7-2.1-0.8v-0.1c1.7-0.4,3.1-1.4,4-2.8c0.5-0.8,0.8-1.6,1-2.4h-4c-0.1,0.3-0.2,0.7-0.4,1
			c-0.4,0.7-0.9,1.2-1.5,1.6c-0.7,0.4-1.4,0.7-2.2,0.8c-0.8,0.1-3.6,0.2-4.5,0.2H25v3.3h10.8c0.8,0,1.6,0.1,2.4,0.4
			c0.6,0.3,1.1,0.7,1.4,1.2c0.4,0.5,0.6,1.1,0.8,1.7c0.2,0.7,0.3,1.3,0.4,2.1c0.1,0.7,0.2,1.5,0.2,2.2c0,0.8,0,1.5,0.1,2.1
			c0,0.6,0.1,1.2,0.2,1.8c0.1,0.5,0.3,0.9,0.6,1.3h4.5c-0.4-0.5-0.8-1.1-1-1.7C45.2,109.9,45.1,109.2,45,108.5"/>
		<path d="M40.1,87.1c0.5,0.6,0.9,1.3,1.1,2.1h4.2c-0.1-1.8-1-3.5-2.3-4.7c-1.9-1.5-4.3-2.2-6.8-2.1H25v3.4h11
			C37.5,85.5,39,86.1,40.1,87.1"/>
		<rect x="25" y="102.4" width="3.5" height="9.7"/>
		<path d="M133.7,124.8c2,0,3.9,0.5,5.5,1.6c0.1,0.1,0.2,0.2,0.3,0.3v-4.2c-0.4-0.2-0.9-0.3-1.3-0.5c-1.5-0.4-3-0.6-4.5-0.6
			c-0.7,0-1.5,0.1-2.2,0.2v3.5C132.3,124.9,133,124.8,133.7,124.8z"/>
		<path d="M127.6,122.6c-1.8,0.8-3.3,1.9-4.6,3.4c-1.2,1.5-2.2,3.2-2.8,5.1c-0.6,2-1,4.1-0.9,6.2c0,2.1,0.3,4.2,0.9,6.2
			c0.5,1.8,1.4,3.5,2.6,5c1.2,1.4,2.7,2.6,4.4,3.3c0.3,0.1,0.6,0.2,0.9,0.4v-4c-0.9-0.6-1.7-1.3-2.3-2.2c-0.9-1.2-1.5-2.6-1.8-4
			c-0.4-1.6-0.6-3.2-0.6-4.9c0-1.5,0.2-3.1,0.6-4.6c0.4-1.4,1-2.7,1.8-3.9c0.6-0.9,1.4-1.6,2.3-2.2v-3.9
			C128,122.5,127.8,122.5,127.6,122.6z"/>
		<path d="M133.4,153c2.1,0,4.2-0.4,6.1-1.2v-4.2c-0.7,0.6-1.4,1.1-2.2,1.4c-1.1,0.5-2.3,0.7-3.6,0.7c-0.7,0-1.5-0.1-2.2-0.2v3.4
			C132.2,153,132.8,153,133.4,153z"/>
		<polygon points="89.1,99.9 70.9,99.9 67.3,108.9 51,108.9 51,112.3 69.4,112.3 69.4,112.3 70.1,112.3 73.5,103.3 86.3,103.3 
			89.6,112.3 94,112.3 		"/>
		<path d="M0.8,103.6c0.5,1.8,1.4,3.5,2.6,5c1.2,1.4,2.7,2.6,4.4,3.3c1.9,0.8,4,1.2,6.2,1.2c2.1,0,4.1-0.4,6.1-1.2v-4.2
			c-0.7,0.6-1.4,1.1-2.2,1.4c-1.1,0.5-2.3,0.7-3.5,0.7c-1.6,0-3.2-0.3-4.7-1c-1.3-0.7-2.3-1.6-3.2-2.8c-0.9-1.2-1.5-2.6-1.8-4
			c-0.2-0.8-0.3-1.5-0.4-2.3H0.1C0.2,101,0.4,102.3,0.8,103.6z"/>
		<path d="M6.4,88.7c0.8-1.1,1.9-2.1,3.2-2.7c1.4-0.7,3-1,4.6-1c2,0,3.9,0.5,5.5,1.6c0.1,0.1,0.2,0.2,0.3,0.2v-4.1
			c-0.4-0.2-0.8-0.3-1.3-0.5c-1.5-0.4-3-0.6-4.5-0.6c-2.1,0-4.2,0.4-6.2,1.2c-1.7,0.8-3.3,1.9-4.5,3.4c-1.2,1.5-2.2,3.2-2.7,5
			c-0.5,1.6-0.8,3.2-0.9,4.9h4c0.1-1.2,0.2-2.4,0.6-3.5C4.9,91.2,5.6,89.9,6.4,88.7z"/>
	</g>
	<g>
		<polygon points="100.2,140.1 110.6,140.1 110.6,140.1 100.2,140.1 		"/>
		<g>
			<rect x="24.8" y="122" width="4.1" height="4.6"/>
			<rect x="24.8" y="130" width="4.1" height="22.8"/>
		</g>
		<polygon points="39.6,127.3 39.7,127.3 43.2,136.6 46.8,136.6 41.4,122.1 35.7,122.1 35.7,136.6 39.6,136.6 		"/>
		<rect x="35.7" y="140.1" width="3.9" height="12.8"/>
		<polygon points="51.1,147.9 48.1,140.1 44.5,140.1 49.4,152.8 52.9,152.8 57.7,140.1 54.1,140.1 		"/>
		<rect x="62.6" y="140.1" width="3.9" height="12.8"/>
		<polygon points="62.5,127.3 62.6,127.3 62.6,136.6 66.5,136.6 66.5,122.1 60.9,122.1 55.4,136.6 59,136.6 		"/>
		<path d="M92.5,124.5c-1.6-1.6-4-2.4-7.1-2.4h-4.6v3.4H84c2.3,0,4,0.5,5.1,1.4c1.1,1.1,1.7,2.6,1.6,4.2c0.1,1.6-0.5,3.1-1.6,4.2
			c-1.1,1-2.8,1.4-5.1,1.4h-3.2v3.4h4.6c3.1,0,5.5-0.8,7.1-2.4C95.7,134,95.7,128.4,92.5,124.5z"/>
		<polygon points="78,122.1 73.9,122.1 73.9,152.8 78,152.8 		"/>
		<polygon points="96.2,140.1 91.2,152.8 95.4,152.8 98.9,143.6 111.9,143.6 115.3,152.8 119.9,152.8 114.8,140.1 		"/>
		<polygon points="105.4,125.8 105.5,125.8 109.4,136.6 113.5,136.6 107.8,122.1 103.2,122.1 97.6,136.6 101.5,136.6 		"/>
	</g>
</g>
<g>
	<polygon points="112.2,17 122.2,17 122.2,13.6 112.2,13.6 112.2,4 126.6,4 126.6,0.7 108.1,0.7 108.1,24.1 112.2,24.1 	"/>
	<polygon points="174.7,4 188.6,4 188.6,0.7 170.7,0.7 170.7,30.9 188.8,30.9 188.8,27.5 174.7,27.5 	"/>
	<rect x="176.5" y="13.6" width="6.7" height="3.4"/>
	<polygon points="137.2,4.3 137.3,4.3 141.1,15 145.2,15 139.5,0.7 135.1,0.7 129.4,15 133.3,15 	"/>
	<rect x="155.1" y="7.4" width="4.1" height="23.4"/>
	<polygon points="147.3,4 155.1,4 155.1,4 159.1,4 159.1,4 166.8,4 166.8,0.7 147.3,0.7 	"/>
	<rect x="207.7" y="18.2" width="4" height="12.7"/>
	<polygon points="219.5,0.7 200,0.7 200,4 207.7,4 207.7,15 211.8,15 211.8,4 219.5,4 	"/>
	<rect x="207.3" y="51.4" width="4.1" height="19.4"/>
	<polygon points="218.6,40.6 200.1,40.6 200.1,44 207.3,44 207.3,48 211.3,48 211.3,44 218.6,44 	"/>
	<rect x="164.9" y="40.7" width="11" height="3.4"/>
	<polygon points="170.1,53.7 161.6,53.7 161.6,40.7 157.6,40.7 157.6,70.9 161.6,70.9 161.6,57.1 170.1,57.1 	"/>
	<rect x="164.9" y="67.5" width="11.2" height="3.4"/>
	<path d="M243.2,4.8C241,2,237.7,0.3,234.1,0v3.5c1,0.1,2.1,0.5,3,0.9c1.3,0.7,2.4,1.7,3.3,2.8c0.9,1.2,1.5,2.6,1.9,4
		c0.8,2.9,0.8,6.1,0,9c-0.4,1.4-1,2.8-1.9,4c-0.9,1.2-2,2.2-3.3,2.9c-0.9,0.5-2,0.8-3,0.9v3.4c1.6-0.1,3.1-0.5,4.6-1.2
		c1.8-0.8,3.3-2,4.6-3.5c1.2-1.5,2.2-3.2,2.8-5c1.2-3.9,1.2-8,0-11.9C245.4,8,244.5,6.3,243.2,4.8"/>
	<path d="M221.4,4.8c-1.2,1.5-2.2,3.2-2.8,5.1c-1.2,3.9-1.2,8,0,11.9c0.6,1.8,1.5,3.6,2.8,5c1.2,1.5,2.8,2.7,4.6,3.5
		c1.5,0.7,3.1,1.1,4.7,1.2v-3.4c-1.1-0.1-2.2-0.5-3.2-1c-1.3-0.7-2.4-1.7-3.3-2.9c-0.9-1.2-1.5-2.6-1.9-4c-0.8-2.9-0.8-6.1,0-9
		c0.4-1.4,1-2.8,1.9-4c0.9-1.2,2-2.2,3.3-2.8c1-0.5,2.1-0.9,3.2-1V0c-1.6,0.1-3.2,0.6-4.7,1.3C224.2,2.1,222.7,3.3,221.4,4.8"/>
	<path d="M99.9,64.3c-0.9,1.2-2,2.2-3.3,2.8c-3,1.4-6.5,1.4-9.5,0c-1.3-0.7-2.4-1.7-3.3-2.8c-0.9-1.2-1.5-2.6-1.9-4
		c-0.8-2.9-0.8-5.9-0.1-8.7h-4.1c-0.7,3.4-0.6,6.9,0.4,10.2c0.6,1.8,1.5,3.5,2.8,5c1.2,1.5,2.8,2.7,4.6,3.5c4.1,1.7,8.6,1.7,12.7,0
		c1.8-0.8,3.3-2,4.6-3.5c0.8-0.9,1.4-2,1.9-3.1h-4.4C100.1,63.9,100,64.1,99.9,64.3"/>
	<path d="M102.7,44.8c-1.2-1.5-2.8-2.7-4.6-3.5c-4-1.7-8.6-1.7-12.7,0c-1.8,0.8-3.3,2-4.6,3.5c-0.9,1-1.6,2.2-2.1,3.4h4.4
		c0.2-0.3,0.4-0.6,0.6-0.9c0.9-1.2,2-2.2,3.3-2.8c3-1.4,6.5-1.4,9.5,0c1.3,0.7,2.4,1.7,3.3,2.8c0.9,1.2,1.5,2.6,1.9,4
		c0.8,2.9,0.8,6.1,0,9l0,0h4.1c0.4-1.5,0.5-3,0.5-4.5c0-2-0.3-4-0.9-5.9C104.9,48,104,46.3,102.7,44.8"/>
	<path d="M102.1,27c-0.1-0.7-0.2-1.5-0.2-2.2c0-0.8-0.1-1.5-0.1-2.2c-0.1-0.7-0.2-1.4-0.4-2.1c-0.1-0.6-0.4-1.3-0.7-1.8
		c-0.3-0.6-0.8-1-1.3-1.4c-0.6-0.4-1.4-0.7-2.2-0.9v-0.1c1.7-0.4,3.1-1.4,4-2.8c0.5-0.8,0.8-1.6,1-2.4h-4c-0.1,0.3-0.2,0.7-0.4,1
		c-0.4,0.7-0.9,1.2-1.5,1.6c-0.7,0.4-1.4,0.7-2.2,0.8c-0.8,0.1-3.6,0.2-4.5,0.2H82V18h10.9c0.8,0,1.6,0.1,2.4,0.4
		c0.6,0.3,1.1,0.7,1.4,1.2c0.4,0.5,0.7,1.1,0.8,1.7c0.2,0.7,0.3,1.4,0.4,2.1c0.1,0.7,0.2,1.5,0.3,2.2c0,0.8,0.1,1.5,0.1,2.1
		c0,0.6,0.1,1.2,0.2,1.8c0.1,0.5,0.3,0.9,0.6,1.3h4.5c-0.4-0.5-0.8-1.1-1-1.8C102.4,28.4,102.2,27.7,102.1,27"/>
	<path d="M97.2,5.5c0.5,0.6,0.9,1.3,1.1,2.1h4.2c-0.1-1.8-1-3.6-2.4-4.8c-1.9-1.5-4.3-2.3-6.8-2.1H82V4h11.1
		C94.6,3.9,96.1,4.4,97.2,5.5"/>
	<rect x="82" y="20.9" width="3.5" height="9.7"/>
	<polygon points="129.1,40.3 129.1,65 129,64.3 124.6,57.1 120.1,57.1 128.5,70.7 133,70.7 133,40.3 	"/>
	<polygon points="114.2,40.3 109.9,40.3 109.9,70.7 113.7,70.7 113.7,47 113.8,47 118,53.7 122.5,53.7 	"/>
	<polygon points="147.7,40.4 147.7,65.1 147.6,64.4 135.7,45.2 135.7,52.5 147.1,70.9 151.6,70.9 151.6,40.4 	"/>
	<path d="M190.8,43.4c2,0,3.9,0.5,5.6,1.6l0.3,0.3v-4.2c-0.4-0.2-0.9-0.3-1.3-0.5c-1.5-0.4-3-0.6-4.6-0.6c-0.7,0-1.5,0.1-2.2,0.2
		v3.5C189.3,43.4,190,43.4,190.8,43.4z"/>
	<path d="M184.6,41.2c-1.8,0.8-3.3,2-4.6,3.4c-1.2,1.5-2.2,3.2-2.8,5.1c-0.6,2-1,4.1-0.9,6.2c0,2.1,0.3,4.2,0.9,6.2
		c0.5,1.8,1.4,3.5,2.6,5c1.2,1.4,2.7,2.6,4.4,3.3c0.3,0.1,0.6,0.2,0.9,0.3v-4c-0.9-0.6-1.7-1.3-2.3-2.2c-0.9-1.2-1.5-2.6-1.8-4.1
		c-0.4-1.6-0.6-3.3-0.6-4.9c0-1.6,0.2-3.1,0.6-4.6c0.4-1.4,1-2.8,1.9-3.9c0.6-0.9,1.4-1.6,2.3-2.2V41C185,41,184.8,41.1,184.6,41.2z
		"/>
	<path d="M190.5,71.8c2.1,0,4.2-0.4,6.2-1.2v-4.3c-0.7,0.6-1.4,1.1-2.3,1.4c-1.1,0.5-2.4,0.7-3.6,0.7c-0.8,0-1.5-0.1-2.2-0.2v3.5
		C189.2,71.7,189.8,71.8,190.5,71.8z"/>
	<polygon points="146.5,18.3 128.1,18.3 124.6,27.4 108.1,27.4 108.1,30.8 126.7,30.8 126.7,30.9 127.4,30.9 130.8,21.8 143.6,21.8 
		146.9,30.9 151.4,30.9 	"/>
	<path d="M56.6,55.8c0,1.5,0.1,3,0.5,4.5h4.2c-0.4-1.6-0.6-3.2-0.6-4.8c0-1.4,0.2-2.8,0.5-4.1h-4.1C56.8,52.8,56.6,54.3,56.6,55.8z"
		/>
	<path d="M66.4,44.2c1.5-0.7,3.1-1.1,4.7-1c2,0,3.9,0.5,5.6,1.6l0.4,0.2v-4.2c-0.4-0.2-0.9-0.3-1.3-0.5c-1.5-0.4-3-0.6-4.6-0.6
		c-2.2-0.1-4.3,0.4-6.3,1.2c-1.8,0.8-3.3,2-4.5,3.4c-0.9,1.1-1.6,2.3-2.2,3.6h4.3c0.2-0.3,0.4-0.7,0.7-1
		C64,45.8,65.1,44.9,66.4,44.2z"/>
	<path d="M60.1,67c1.2,1.4,2.7,2.6,4.4,3.3c2,0.8,4.1,1.3,6.2,1.2c2.1,0.1,4.3-0.3,6.2-1.1v-4.3c-0.7,0.6-1.4,1.1-2.3,1.4
		c-1.1,0.5-2.4,0.7-3.6,0.7c-1.6,0.1-3.3-0.3-4.7-1c-1.3-0.6-2.4-1.6-3.2-2.7c-0.2-0.2-0.3-0.5-0.5-0.8h-4.6
		C58.6,64.9,59.3,66,60.1,67z"/>
	<path d="M57.7,22.1c0.5,1.8,1.4,3.5,2.6,5c1.2,1.4,2.7,2.6,4.4,3.3c1.9,0.8,4.1,1.3,6.2,1.2c2.1,0,4.2-0.4,6.1-1.2v-4.2
		c-0.7,0.6-1.4,1.1-2.2,1.4c-1.1,0.5-2.3,0.7-3.6,0.7c-1.6,0-3.2-0.3-4.7-1c-1.3-0.6-2.4-1.6-3.2-2.7c-0.9-1.2-1.5-2.6-1.8-4
		c-0.2-0.8-0.3-1.6-0.4-2.4h-4.1C57,19.5,57.3,20.8,57.7,22.1z"/>
	<path d="M63.3,7.1c0.8-1.1,1.9-2.1,3.2-2.7c1.5-0.7,3.1-1.1,4.7-1c2-0.1,3.9,0.5,5.5,1.6c0.1,0.1,0.2,0.2,0.3,0.2V1.1
		c-0.4-0.2-0.9-0.3-1.3-0.5c-1.5-0.4-3-0.6-4.5-0.6C69.1,0,67,0.4,65,1.2c-1.7,0.8-3.3,2-4.5,3.4c-1.2,1.5-2.2,3.2-2.8,5.1
		c-0.5,1.6-0.8,3.2-0.9,4.9h4c0.1-1.2,0.3-2.4,0.6-3.6C61.8,9.6,62.5,8.3,63.3,7.1z"/>
</g>
</svg>
