<svg xmlns="http://www.w3.org/2000/svg">
  <defs>
    <style>
      .a, .b {
        fill: #1a171b;
      }

      .a {
        fill-rule: evenodd;
      }
    </style>
  </defs>
  <title>artsadmin</title>
  <g>
    <path class="a" d="M5.33,21.59L6.49,17.9h0l1.07,3.69H5.33Zm-5,4.28H4l0.54-1.71H8.34l0.5,1.71h3.82l-4.36-12H4.69Z" transform="translate(-0.28 -0.28)"/>
    <path class="a" d="M13.63,25.87H19c4.18,0,6.12-2.34,6.12-6,0-3-1.4-6-5.4-6H13.63v12ZM17.32,17h1.18a2.65,2.65,0,0,1,2.9,2.85c0,1.12-.34,3-2.64,3H17.32V17Z" transform="translate(-0.28 -0.28)"/>
    <polygon class="a" points="25.85 25.59 29.34 25.59 29.34 17.9 29.37 17.9 31.45 25.59 34.2 25.59 36.28 17.9 36.31 17.9 36.31 25.59 39.8 25.59 39.8 13.61 34.55 13.61 32.85 20.65 32.81 20.65 31.1 13.61 25.85 13.61 25.85 25.59"/>
    <rect class="b" x="41.34" y="13.61" width="3.69" height="11.98"/>
    <polygon class="a" points="46.58 25.59 50.07 25.59 50.07 19.04 50.1 19.04 53.78 25.59 57.36 25.59 57.36 13.61 53.88 13.61 53.88 20.01 53.84 20.01 50.36 13.61 46.58 13.61 46.58 25.59"/>
    <rect class="b" x="58.87" y="22.26" width="3.49" height="3.33"/>
    <path class="a" d="M16,8.27l1.16-3.69h0l1.06,3.69H16Zm-5,4.28h3.71l0.53-1.71H19l0.5,1.71h3.82L19,0.57H15.37Z" transform="translate(-0.28 -0.28)"/>
    <path class="a" d="M24.31,12.54H28V8.36h2c1.46,0,1.56,1.19,1.67,2.34a8.42,8.42,0,0,0,.3,1.84h3.68a8.07,8.07,0,0,1-.4-2.57,3.28,3.28,0,0,0-1.76-3,3.06,3.06,0,0,0,1.79-3c0-2.27-1.81-3.43-3.91-3.43h-7v12ZM28,3.42h1.72c1.41,0,1.84.44,1.84,1.19,0,1.07-.94,1.19-1.63,1.19H28V3.42Z" transform="translate(-0.28 -0.28)"/>
    <polygon class="a" points="39.27 12.26 42.95 12.26 42.95 3.35 46.31 3.35 46.31 0.28 35.91 0.28 35.91 3.35 39.27 3.35 39.27 12.26"/>
    <path class="a" d="M47,8.52c0,3.82,3.91,4.31,5.26,4.31,2.67,0,5.54-1,5.54-4.13,0-2.2-1.68-3-3.37-3.46S51,4.59,51,3.74c0-.67.82-0.81,1.33-0.81a1.91,1.91,0,0,1,1.09.3,0.92,0.92,0,0,1,.43,1H57.3c-0.1-2.92-2.39-3.91-5-3.91s-4.83,1.19-4.83,4c0,2.42,2.16,2.94,4.06,3.48,2.06,0.58,2.58.75,2.58,1.37a1.29,1.29,0,0,1-1.53,1.09,1.7,1.7,0,0,1-1.76-.87,2.17,2.17,0,0,1-.13-0.79H47Z" transform="translate(-0.28 -0.28)"/>
  </g>
</svg>
