<svg xmlns="http://www.w3.org/2000/svg" viewBox="0 0 914.66 166.95">
  <defs>
    <style>
      .a {
        fill: #224f9f;
      }

      .b {
        fill: #faed36;
        stroke: #faed36;
        stroke-width: 1.11px;
      }
    </style>
  </defs>
  <title>logosbeneficairescreativeeuropeleft_en</title>
  <g>
    <rect class="a" x="666.84" width="247.82" height="166.95"/>
    <g>
      <polygon class="b" points="852.88 80.79 850.3 80.74 846.47 80.67 845.22 77.26 844.41 75.08 843.61 77.26 842.37 80.67 838.55 80.74 835.96 80.79 838.07 82.31 841.09 84.48 839.99 87.89 839.24 90.21 841.28 88.87 844.41 86.79 847.58 88.87 849.6 90.21 848.86 87.89 847.77 84.48 850.77 82.31 852.88 80.79"/>
      <polygon class="b" points="833.9 57.56 832.82 60.98 832.08 63.29 834.1 61.97 837.25 59.86 840.42 61.97 842.42 63.29 841.69 60.98 840.6 57.56 843.6 55.39 845.72 53.87 843.14 53.83 839.3 53.77 838.06 50.35 837.25 48.15 836.45 50.35 835.21 53.77 831.39 53.83 828.8 53.87 830.9 55.39 833.9 57.56"/>
      <polygon class="b" points="819.83 34.19 818.58 30.77 817.77 28.58 816.97 30.77 815.73 34.19 811.9 34.25 809.31 34.31 811.43 35.83 814.44 37.99 813.35 41.41 812.6 43.73 814.63 42.4 817.77 40.31 820.92 42.4 822.95 43.73 822.2 41.41 821.13 37.99 824.13 35.83 826.24 34.31 823.66 34.25 819.83 34.19"/>
      <polygon class="b" points="792.59 26.97 791.34 23.57 790.52 21.37 789.74 23.57 788.49 26.97 784.66 27.05 782.07 27.09 784.19 28.61 787.19 30.79 786.1 34.21 785.35 36.52 787.38 35.2 790.52 33.1 793.69 35.2 795.71 36.52 794.97 34.21 793.89 30.79 796.89 28.61 798.99 27.09 796.41 27.05 792.59 26.97"/>
      <polygon class="b" points="765.59 34.19 764.33 30.77 763.55 28.58 762.75 30.77 761.5 34.19 757.67 34.25 755.08 34.3 757.18 35.82 760.2 37.98 759.11 41.4 758.37 43.73 760.39 42.38 763.55 40.3 766.68 42.38 768.71 43.73 767.97 41.4 766.88 37.98 769.89 35.82 772.01 34.3 769.41 34.25 765.59 34.19"/>
      <polygon class="b" points="745.92 53.56 744.69 50.16 743.9 47.97 743.09 50.16 741.85 53.56 738.02 53.63 735.44 53.68 737.55 55.2 740.55 57.37 739.45 60.78 738.73 63.1 740.73 61.77 743.89 59.68 747.04 61.77 749.06 63.1 748.32 60.78 747.23 57.37 750.25 55.2 752.35 53.68 749.76 53.63 745.92 53.56"/>
      <polygon class="b" points="739.69 88.82 741.72 90.16 740.98 87.83 739.89 84.42 742.89 82.25 745 80.74 742.42 80.69 738.6 80.62 737.35 77.22 736.55 75.03 735.75 77.22 734.5 80.62 730.67 80.69 728.09 80.74 730.18 82.25 733.2 84.42 732.11 87.83 731.37 90.16 733.39 88.82 736.55 86.73 739.69 88.82"/>
      <polygon class="b" points="745.84 107.33 744.59 103.93 743.8 101.74 742.99 103.93 741.74 107.33 737.92 107.41 735.33 107.47 737.44 108.97 740.44 111.15 739.36 114.56 738.61 116.86 740.63 115.55 743.78 113.46 746.94 115.55 748.95 116.87 748.21 114.56 747.14 111.15 750.14 108.97 752.24 107.47 749.65 107.41 745.84 107.33"/>
      <polygon class="b" points="765.35 126.88 764.11 123.46 763.31 121.27 762.5 123.46 761.26 126.88 757.42 126.94 754.84 127 756.96 128.51 759.95 130.68 758.88 134.09 758.13 136.41 760.14 135.09 763.31 133 766.44 135.09 768.48 136.41 767.73 134.09 766.65 130.68 769.65 128.51 771.77 127 769.17 126.94 765.35 126.88"/>
      <polygon class="b" points="792.56 134.09 791.33 130.7 790.51 128.5 789.73 130.7 788.48 134.09 784.65 134.17 782.05 134.23 784.16 135.76 787.18 137.91 786.08 141.32 785.35 143.65 787.37 142.31 790.51 140.22 793.67 142.31 795.69 143.65 794.96 141.32 793.86 137.91 796.87 135.76 798.97 134.23 796.4 134.17 792.56 134.09"/>
      <polygon class="b" points="819.58 127.01 818.33 123.6 817.53 121.42 816.73 123.6 815.49 127.01 811.66 127.09 809.07 127.14 811.19 128.65 814.19 130.82 813.11 134.23 812.37 136.56 814.38 135.23 817.53 133.14 820.69 135.23 822.69 136.56 821.97 134.23 820.89 130.82 823.88 128.65 825.99 127.14 823.4 127.09 819.58 127.01"/>
      <polygon class="b" points="839.2 107.56 837.95 104.15 837.15 101.97 836.36 104.15 835.1 107.56 831.28 107.63 828.69 107.68 830.81 109.21 833.81 111.37 832.72 114.79 832 117.11 834 115.77 837.15 113.69 840.31 115.77 842.32 117.11 841.58 114.79 840.5 111.37 843.51 109.21 845.62 107.68 843.03 107.63 839.2 107.56"/>
    </g>
  </g>
  <g>
    <path class="a" d="M279.69,28.29l4.74,1.2a16,16,0,0,1-5.36,8.9,14.76,14.76,0,0,1-9.46,3.06,17,17,0,0,1-9.41-2.36,14.7,14.7,0,0,1-5.52-6.82,24.35,24.35,0,0,1-1.89-9.6,21.08,21.08,0,0,1,2.14-9.75A14.64,14.64,0,0,1,261,6.59a17.76,17.76,0,0,1,8.68-2.16,14.67,14.67,0,0,1,9,2.73,14.2,14.2,0,0,1,5.1,7.69L279.15,16a11.07,11.07,0,0,0-3.61-5.69,9.63,9.63,0,0,0-6-1.78,11.57,11.57,0,0,0-6.9,2,10.44,10.44,0,0,0-3.89,5.31,21.37,21.37,0,0,0-1.12,6.87,21.85,21.85,0,0,0,1.33,8,9.91,9.91,0,0,0,4.14,5.09,11.6,11.6,0,0,0,6.08,1.69A10.19,10.19,0,0,0,276,35.1,11.75,11.75,0,0,0,279.69,28.29Z"/>
    <path class="a" d="M288.06,27.87q0-7.2,4-10.67a12.07,12.07,0,0,1,8.15-2.88,11.63,11.63,0,0,1,8.74,3.5q3.39,3.5,3.39,9.68a17.16,17.16,0,0,1-1.5,7.87,10.63,10.63,0,0,1-4.37,4.46,12.74,12.74,0,0,1-6.26,1.59,11.65,11.65,0,0,1-8.8-3.49Q288.06,34.44,288.06,27.87Zm4.52,0q0,5,2.17,7.46a7.24,7.24,0,0,0,10.91,0q2.17-2.49,2.17-7.59,0-4.81-2.19-7.29a7.25,7.25,0,0,0-10.9,0Q292.58,22.89,292.58,27.87Z"/>
    <path class="a" d="M315.8,30.09V25.67h13.5v4.42H315.8Z"/>
    <path class="a" d="M335.21,40.83V18.32h-3.88V14.91h3.88V12.15a12.08,12.08,0,0,1,.46-3.88A5.62,5.62,0,0,1,337.9,5.5a8.05,8.05,0,0,1,4.48-1.06,21.52,21.52,0,0,1,4.1.44l-0.66,3.83a14.82,14.82,0,0,0-2.59-.24,3.85,3.85,0,0,0-2.83.86,4.63,4.63,0,0,0-.83,3.2v2.39h5.05v3.42h-5.05V40.83h-4.37Z"/>
    <path class="a" d="M365,40.83V37a9.49,9.49,0,0,1-8.23,4.39,10.49,10.49,0,0,1-4.29-.88,7.06,7.06,0,0,1-3-2.21,8.25,8.25,0,0,1-1.36-3.26,22.24,22.24,0,0,1-.27-4.1V14.91h4.39V29.29a25.57,25.57,0,0,0,.27,4.64,4.58,4.58,0,0,0,1.76,2.72,5.45,5.45,0,0,0,3.32,1,7.23,7.23,0,0,0,3.71-1,5.63,5.63,0,0,0,2.45-2.76,13.83,13.83,0,0,0,.72-5.07V14.91H369V40.83H365Z"/>
    <path class="a" d="M375.85,40.83V14.91h4v3.69a9.32,9.32,0,0,1,8.25-4.27,10.83,10.83,0,0,1,4.31.84,6.78,6.78,0,0,1,2.94,2.21,8.5,8.5,0,0,1,1.37,3.25,25.25,25.25,0,0,1,.24,4.27V40.83h-4.39V25.06a11.84,11.84,0,0,0-.51-4,4.23,4.23,0,0,0-1.82-2.12,5.79,5.79,0,0,0-3.06-.79,7.12,7.12,0,0,0-4.85,1.78q-2,1.78-2,6.76V40.83h-4.39Z"/>
    <path class="a" d="M420.48,40.83V37.56a8.06,8.06,0,0,1-7.25,3.86,10.16,10.16,0,0,1-5.7-1.71,11.23,11.23,0,0,1-4-4.77,16.51,16.51,0,0,1-1.43-7,18.42,18.42,0,0,1,1.29-7A10.2,10.2,0,0,1,407.25,16,10.38,10.38,0,0,1,413,14.32a8.65,8.65,0,0,1,4.17,1,8.75,8.75,0,0,1,3,2.58V5h4.37V40.83h-4.08ZM406.59,27.89q0,5,2.1,7.45a6.33,6.33,0,0,0,5,2.46,6.21,6.21,0,0,0,4.89-2.36q2-2.36,2-7.19,0-5.32-2.05-7.81A6.31,6.31,0,0,0,413.45,18a6.09,6.09,0,0,0-4.89,2.39Q406.59,22.74,406.59,27.89Z"/>
    <path class="a" d="M449.22,32.48L453.76,33a11.08,11.08,0,0,1-4,6.18,13.48,13.48,0,0,1-16.44-1.31Q430,34.41,430,28.09q0-6.54,3.37-10.16a11.41,11.41,0,0,1,8.74-3.61,11.08,11.08,0,0,1,8.5,3.54q3.3,3.54,3.3,10,0,0.39,0,1.17H434.55A10,10,0,0,0,437,35.54a7.19,7.19,0,0,0,5.42,2.27,6.72,6.72,0,0,0,4.13-1.27A8.43,8.43,0,0,0,449.22,32.48Zm-14.43-7.1h14.48a8.79,8.79,0,0,0-1.66-4.91,6.74,6.74,0,0,0-5.44-2.54,7,7,0,0,0-5.09,2A8,8,0,0,0,434.79,25.38Z"/>
    <path class="a" d="M476.1,40.83V37.56a8.06,8.06,0,0,1-7.25,3.86,10.16,10.16,0,0,1-5.7-1.71,11.23,11.23,0,0,1-4-4.77,16.51,16.51,0,0,1-1.43-7,18.42,18.42,0,0,1,1.29-7A10.2,10.2,0,0,1,462.87,16a10.38,10.38,0,0,1,5.79-1.69,8.65,8.65,0,0,1,4.17,1,8.75,8.75,0,0,1,3,2.58V5h4.37V40.83H476.1ZM462.21,27.89q0,5,2.1,7.45a6.33,6.33,0,0,0,5,2.46,6.21,6.21,0,0,0,4.89-2.36q2-2.36,2-7.19,0-5.32-2.05-7.81A6.31,6.31,0,0,0,469.07,18a6.09,6.09,0,0,0-4.89,2.39Q462.21,22.74,462.21,27.89Z"/>
    <path class="a" d="M505,40.83H501V5h4.39V17.81a8.69,8.69,0,0,1,7.1-3.49,10.88,10.88,0,0,1,4.53,1A9.24,9.24,0,0,1,520.5,18a13.11,13.11,0,0,1,2.16,4.21,17.37,17.37,0,0,1,.78,5.27q0,6.67-3.3,10.3a10.31,10.31,0,0,1-7.91,3.64,8.26,8.26,0,0,1-7.2-3.83v3.25Zm0-13.16q0,4.66,1.27,6.74a6.28,6.28,0,0,0,10.6.89q2.1-2.5,2.1-7.46t-2-7.49a6.13,6.13,0,0,0-4.87-2.42,6.32,6.32,0,0,0-5,2.5Q505,22.94,505,27.68Z"/>
    <path class="a" d="M528.59,50.82l-0.49-4.13a9.77,9.77,0,0,0,2.51.39A4.82,4.82,0,0,0,533,46.6a4,4,0,0,0,1.44-1.37A21.63,21.63,0,0,0,535.74,42q0.12-.37.39-1.07l-9.84-26H531l5.4,15q1,2.86,1.88,6A58.79,58.79,0,0,1,540.11,30l5.54-15.11H550l-9.86,26.37a51.89,51.89,0,0,1-2.47,5.88A8.69,8.69,0,0,1,535,50.34a6.34,6.34,0,0,1-3.61,1A8.81,8.81,0,0,1,528.59,50.82Z"/>
    <path class="a" d="M577.27,36.9l0.63,3.88a16.28,16.28,0,0,1-3.32.39,7.52,7.52,0,0,1-3.71-.76,4.24,4.24,0,0,1-1.86-2,15.72,15.72,0,0,1-.54-5.19V18.32h-3.22V14.91h3.22V8.49l4.37-2.64v9.06h4.42v3.42h-4.42V33.49a7.66,7.66,0,0,0,.23,2.42,1.83,1.83,0,0,0,.76.86,2.93,2.93,0,0,0,1.5.32A14.38,14.38,0,0,0,577.27,36.9Z"/>
    <path class="a" d="M581.57,40.83V5H586V17.88a9.82,9.82,0,0,1,7.76-3.56,10.47,10.47,0,0,1,5,1.14,6.66,6.66,0,0,1,3,3.14,14.44,14.44,0,0,1,.92,5.81V40.83h-4.39V24.4q0-3.3-1.43-4.8a5.31,5.31,0,0,0-4-1.5,7.12,7.12,0,0,0-3.67,1,5.72,5.72,0,0,0-2.45,2.75,12.61,12.61,0,0,0-.73,4.79V40.83h-4.39Z"/>
    <path class="a" d="M627.12,32.48L631.67,33a11.08,11.08,0,0,1-4,6.18,13.48,13.48,0,0,1-16.44-1.31q-3.33-3.5-3.33-9.83,0-6.54,3.37-10.16A11.41,11.41,0,0,1,620,14.32a11.08,11.08,0,0,1,8.5,3.54q3.3,3.54,3.3,10,0,0.39,0,1.17H612.45a10,10,0,0,0,2.42,6.54,7.19,7.19,0,0,0,5.42,2.27,6.72,6.72,0,0,0,4.13-1.27A8.43,8.43,0,0,0,627.12,32.48Zm-14.43-7.1h14.48a8.79,8.79,0,0,0-1.66-4.91,6.74,6.74,0,0,0-5.44-2.54A7,7,0,0,0,615,20,8,8,0,0,0,612.7,25.38Z"/>
    <path class="a" d="M26.9,84.29l4.74,1.2a15.94,15.94,0,0,1-5.36,8.9,14.77,14.77,0,0,1-9.46,3.06,17,17,0,0,1-9.41-2.36,14.7,14.7,0,0,1-5.52-6.82A24.34,24.34,0,0,1,0,78.67a21.08,21.08,0,0,1,2.14-9.75,14.64,14.64,0,0,1,6.08-6.32,17.77,17.77,0,0,1,8.68-2.16,14.68,14.68,0,0,1,9,2.73A14.21,14.21,0,0,1,31,70.86L26.37,72a11.07,11.07,0,0,0-3.61-5.69,9.63,9.63,0,0,0-6-1.78,11.57,11.57,0,0,0-6.9,2A10.44,10.44,0,0,0,6,71.77a21.38,21.38,0,0,0-1.12,6.87,21.85,21.85,0,0,0,1.33,8,9.92,9.92,0,0,0,4.14,5.09,11.6,11.6,0,0,0,6.08,1.68,10.19,10.19,0,0,0,6.74-2.29A11.74,11.74,0,0,0,26.9,84.29Z"/>
    <path class="a" d="M36.87,96.84V70.91h4v3.93a10.71,10.71,0,0,1,2.8-3.64,4.88,4.88,0,0,1,2.82-.88A8.57,8.57,0,0,1,51,71.74l-1.51,4.08a6.29,6.29,0,0,0-3.22-1,4.19,4.19,0,0,0-2.59.87A4.69,4.69,0,0,0,42,78.13a17.12,17.12,0,0,0-.73,5.13V96.84H36.87Z"/>
    <path class="a" d="M71.31,88.49L75.85,89a11.08,11.08,0,0,1-4,6.18,12,12,0,0,1-7.42,2.2,11.86,11.86,0,0,1-9-3.5q-3.33-3.5-3.33-9.83,0-6.54,3.37-10.16a11.4,11.4,0,0,1,8.74-3.61,11.09,11.09,0,0,1,8.5,3.54q3.3,3.54,3.3,10,0,0.39,0,1.17H56.64a10,10,0,0,0,2.42,6.54,7.19,7.19,0,0,0,5.42,2.27,6.72,6.72,0,0,0,4.13-1.27A8.43,8.43,0,0,0,71.31,88.49Zm-14.43-7.1H71.36a8.79,8.79,0,0,0-1.66-4.91,6.74,6.74,0,0,0-5.44-2.54,7,7,0,0,0-5.09,2A8,8,0,0,0,56.88,81.38Z"/>
    <path class="a" d="M98.29,93.64a16.36,16.36,0,0,1-4.7,2.93,13.59,13.59,0,0,1-4.85.85q-4.27,0-6.57-2.09A6.89,6.89,0,0,1,79.88,90a7.09,7.09,0,0,1,.87-3.48A7.16,7.16,0,0,1,83,84a10.7,10.7,0,0,1,3.16-1.44,31.49,31.49,0,0,1,3.91-.66,40.15,40.15,0,0,0,7.84-1.51q0-.9,0-1.15,0-2.69-1.25-3.78a7.35,7.35,0,0,0-5-1.49A7.77,7.77,0,0,0,87.12,75a6.64,6.64,0,0,0-2.18,3.85l-4.3-.59a10.64,10.64,0,0,1,1.93-4.46,8.46,8.46,0,0,1,3.88-2.61,17.33,17.33,0,0,1,5.88-.92,15.58,15.58,0,0,1,5.4.78,7.12,7.12,0,0,1,3.05,2,6.92,6.92,0,0,1,1.37,3,24.75,24.75,0,0,1,.22,4.05V86a62.35,62.35,0,0,0,.28,7.75,9.77,9.77,0,0,0,1.11,3.11H99.17A9.3,9.3,0,0,1,98.29,93.64Zm-0.37-9.81a32.2,32.2,0,0,1-7.18,1.66,16.63,16.63,0,0,0-3.83.88,3.82,3.82,0,0,0-1.73,1.43,3.88,3.88,0,0,0,.72,5A5.73,5.73,0,0,0,89.79,94a9.07,9.07,0,0,0,4.52-1.11,6.85,6.85,0,0,0,2.91-3,10.62,10.62,0,0,0,.71-4.39V83.82Z"/>
    <path class="a" d="M118.77,92.9l0.63,3.88a16.35,16.35,0,0,1-3.32.39,7.52,7.52,0,0,1-3.71-.76,4.23,4.23,0,0,1-1.86-2,15.73,15.73,0,0,1-.54-5.19V74.33h-3.22V70.91H110V64.49l4.37-2.64v9.06h4.42v3.42h-4.42V89.49a7.67,7.67,0,0,0,.23,2.42,1.83,1.83,0,0,0,.76.85,2.92,2.92,0,0,0,1.5.32A14.25,14.25,0,0,0,118.77,92.9Z"/>
    <path class="a" d="M123.1,66.1V61h4.39V66.1H123.1Zm0,30.74V70.91h4.39V96.84H123.1Z"/>
    <path class="a" d="M141.38,96.84l-9.86-25.93h4.64l5.57,15.53q0.9,2.52,1.66,5.22Q144,89.61,145,86.73l5.76-15.82h4.52l-9.81,25.93h-4.1Z"/>
    <path class="a" d="M176.93,88.49L181.47,89a11.08,11.08,0,0,1-4,6.18A13.48,13.48,0,0,1,161,93.92q-3.33-3.5-3.33-9.83,0-6.54,3.37-10.16a11.4,11.4,0,0,1,8.74-3.61,11.09,11.09,0,0,1,8.5,3.54q3.3,3.54,3.3,10,0,0.39,0,1.17H162.26a10,10,0,0,0,2.42,6.54,7.19,7.19,0,0,0,5.42,2.27,6.72,6.72,0,0,0,4.13-1.27A8.43,8.43,0,0,0,176.93,88.49Zm-14.43-7.1H177a8.79,8.79,0,0,0-1.66-4.91,6.74,6.74,0,0,0-5.44-2.54,7,7,0,0,0-5.09,2A8,8,0,0,0,162.5,81.38Z"/>
    <path class="a" d="M201.54,96.84V61h25.88v4.22H206.27v11h19.8v4.2h-19.8V92.61h22v4.22H201.54Z"/>
    <path class="a" d="M251.22,96.84V93A9.49,9.49,0,0,1,243,97.42a10.49,10.49,0,0,1-4.29-.88,7.06,7.06,0,0,1-3-2.21,8.27,8.27,0,0,1-1.36-3.26,22.25,22.25,0,0,1-.27-4.1V70.91h4.39V85.29a25.56,25.56,0,0,0,.27,4.64,4.57,4.57,0,0,0,1.76,2.72,5.44,5.44,0,0,0,3.32,1,7.24,7.24,0,0,0,3.71-1A5.63,5.63,0,0,0,250,89.86a13.83,13.83,0,0,0,.72-5.07V70.91h4.39V96.84h-3.93Z"/>
    <path class="a" d="M262,96.84V70.91h4v3.93a10.71,10.71,0,0,1,2.8-3.64,4.88,4.88,0,0,1,2.82-.88,8.57,8.57,0,0,1,4.52,1.42l-1.51,4.08a6.29,6.29,0,0,0-3.22-1,4.19,4.19,0,0,0-2.59.87,4.69,4.69,0,0,0-1.64,2.41,17.12,17.12,0,0,0-.73,5.13V96.84H262Z"/>
    <path class="a" d="M277.05,83.87q0-7.2,4-10.67a12.06,12.06,0,0,1,8.15-2.88,11.64,11.64,0,0,1,8.74,3.5q3.39,3.5,3.39,9.68a17.16,17.16,0,0,1-1.5,7.87,10.63,10.63,0,0,1-4.37,4.46,12.73,12.73,0,0,1-6.26,1.59,11.65,11.65,0,0,1-8.8-3.49Q277.05,90.44,277.05,83.87Zm4.52,0q0,5,2.17,7.46a7.23,7.23,0,0,0,10.91,0q2.17-2.49,2.17-7.59,0-4.81-2.19-7.29a7.24,7.24,0,0,0-10.9,0Q281.57,78.89,281.57,83.87Z"/>
    <path class="a" d="M306.49,106.77V70.91h4v3.37a9.85,9.85,0,0,1,3.2-3,8.77,8.77,0,0,1,4.32-1A10.25,10.25,0,0,1,323.88,72a10.5,10.5,0,0,1,3.83,4.82A17.62,17.62,0,0,1,329,83.68a17.31,17.31,0,0,1-1.43,7.17,10.86,10.86,0,0,1-9.87,6.58,8.28,8.28,0,0,1-3.94-.93,9,9,0,0,1-2.87-2.34v12.62h-4.39Zm4-22.75q0,5,2,7.4a6.21,6.21,0,0,0,4.91,2.39,6.35,6.35,0,0,0,5-2.48q2.09-2.48,2.09-7.68,0-5-2-7.42a6.14,6.14,0,0,0-4.87-2.47,6.33,6.33,0,0,0-5,2.63Q310.47,79,310.47,84Z"/>
    <path class="a" d="M352.05,88.49L356.59,89a11.08,11.08,0,0,1-4,6.18,13.48,13.48,0,0,1-16.44-1.31q-3.33-3.5-3.33-9.83,0-6.54,3.37-10.16a11.4,11.4,0,0,1,8.74-3.61,11.09,11.09,0,0,1,8.5,3.54q3.3,3.54,3.3,10,0,0.39,0,1.17H337.38a10,10,0,0,0,2.42,6.54,7.19,7.19,0,0,0,5.42,2.27,6.72,6.72,0,0,0,4.13-1.27A8.43,8.43,0,0,0,352.05,88.49Zm-14.43-7.1H352.1a8.79,8.79,0,0,0-1.66-4.91A6.74,6.74,0,0,0,345,73.93a7,7,0,0,0-5.09,2A8,8,0,0,0,337.62,81.38Z"/>
    <path class="a" d="M376.56,96.84V61h13.5a32.64,32.64,0,0,1,5.44.34,10.78,10.78,0,0,1,4.42,1.67,8.77,8.77,0,0,1,2.87,3.45A11.65,11.65,0,0,1,401,79.12q-2.91,3.16-10.5,3.16H381.3V96.84h-4.74Zm4.74-18.77h9.25q4.59,0,6.52-1.71A6.09,6.09,0,0,0,399,71.54a6.46,6.46,0,0,0-1.14-3.84,5.3,5.3,0,0,0-3-2.11,20.22,20.22,0,0,0-4.42-.32H381.3V78.06Z"/>
    <path class="a" d="M409.3,96.84V70.91h4v3.93a10.71,10.71,0,0,1,2.8-3.64,4.88,4.88,0,0,1,2.82-.88,8.57,8.57,0,0,1,4.52,1.42l-1.51,4.08a6.29,6.29,0,0,0-3.22-1,4.19,4.19,0,0,0-2.59.87,4.69,4.69,0,0,0-1.64,2.41,17.12,17.12,0,0,0-.73,5.13V96.84H409.3Z"/>
    <path class="a" d="M424.37,83.87q0-7.2,4-10.67a12.06,12.06,0,0,1,8.15-2.88,11.64,11.64,0,0,1,8.74,3.5q3.39,3.5,3.39,9.68a17.16,17.16,0,0,1-1.5,7.87,10.63,10.63,0,0,1-4.37,4.46,12.73,12.73,0,0,1-6.26,1.59,11.65,11.65,0,0,1-8.8-3.49Q424.37,90.44,424.37,83.87Zm4.52,0q0,5,2.17,7.46a7.23,7.23,0,0,0,10.91,0q2.17-2.49,2.17-7.59,0-4.81-2.19-7.29a7.24,7.24,0,0,0-10.9,0Q428.88,78.89,428.88,83.87Z"/>
    <path class="a" d="M453,99l4.27,0.63a4.07,4.07,0,0,0,1.49,2.88,7.32,7.32,0,0,0,4.47,1.22,7.85,7.85,0,0,0,4.71-1.22,6,6,0,0,0,2.25-3.42,28.14,28.14,0,0,0,.32-5.64,9,9,0,0,1-7.18,3.39A9.78,9.78,0,0,1,455.05,93a14.85,14.85,0,0,1-2.93-9.25,17.22,17.22,0,0,1,1.34-6.85A10.74,10.74,0,0,1,457.36,72a10.51,10.51,0,0,1,6-1.71A9.3,9.3,0,0,1,470.92,74V70.91H475V93.32q0,6.05-1.23,8.58a9,9,0,0,1-3.91,4,13.54,13.54,0,0,1-6.58,1.46,12.41,12.41,0,0,1-7.5-2.09A7.06,7.06,0,0,1,453,99Zm3.64-15.58q0,5.1,2,7.45a6.68,6.68,0,0,0,10.16,0q2.05-2.33,2.05-7.31,0-4.76-2.11-7.18A6.53,6.53,0,0,0,463.67,74a6.34,6.34,0,0,0-5,2.38Q456.64,78.72,456.64,83.41Z"/>
    <path class="a" d="M481.57,96.84V70.91h4v3.93a10.71,10.71,0,0,1,2.8-3.64,4.88,4.88,0,0,1,2.82-.88,8.57,8.57,0,0,1,4.52,1.42l-1.51,4.08a6.29,6.29,0,0,0-3.22-1,4.19,4.19,0,0,0-2.59.87,4.69,4.69,0,0,0-1.64,2.41,17.12,17.12,0,0,0-.73,5.13V96.84h-4.39Z"/>
    <path class="a" d="M515.19,93.64a16.36,16.36,0,0,1-4.7,2.93,13.59,13.59,0,0,1-4.85.85q-4.27,0-6.57-2.09A6.89,6.89,0,0,1,496.78,90a7.09,7.09,0,0,1,.87-3.48A7.16,7.16,0,0,1,499.91,84a10.7,10.7,0,0,1,3.16-1.44,31.49,31.49,0,0,1,3.91-.66,40.15,40.15,0,0,0,7.84-1.51c0-.6,0-1,0-1.15q0-2.69-1.25-3.78a7.35,7.35,0,0,0-5-1.49A7.77,7.77,0,0,0,504,75a6.64,6.64,0,0,0-2.18,3.85l-4.3-.59a10.64,10.64,0,0,1,1.93-4.46,8.46,8.46,0,0,1,3.88-2.61,17.33,17.33,0,0,1,5.88-.92,15.58,15.58,0,0,1,5.4.78,7.12,7.12,0,0,1,3.05,2,6.92,6.92,0,0,1,1.37,3,24.75,24.75,0,0,1,.22,4.05V86a62.35,62.35,0,0,0,.28,7.75,9.77,9.77,0,0,0,1.11,3.11h-4.59A9.3,9.3,0,0,1,515.19,93.64Zm-0.37-9.81a32.2,32.2,0,0,1-7.18,1.66,16.63,16.63,0,0,0-3.83.88,3.82,3.82,0,0,0-1.73,1.43,3.88,3.88,0,0,0,.72,5A5.73,5.73,0,0,0,506.69,94a9.07,9.07,0,0,0,4.52-1.11,6.85,6.85,0,0,0,2.91-3,10.62,10.62,0,0,0,.71-4.39V83.82Z"/>
    <path class="a" d="M526.07,96.84V70.91H530v3.64a9.24,9.24,0,0,1,3.25-3.06,9.13,9.13,0,0,1,4.61-1.16,8.54,8.54,0,0,1,4.72,1.2,6.4,6.4,0,0,1,2.6,3.34,9.31,9.31,0,0,1,8-4.54,7.89,7.89,0,0,1,5.93,2.14q2.07,2.14,2.08,6.58v17.8h-4.37V80.5a12.05,12.05,0,0,0-.43-3.8,3.69,3.69,0,0,0-1.55-1.87,4.84,4.84,0,0,0-2.64-.71,6.13,6.13,0,0,0-4.54,1.82q-1.81,1.82-1.81,5.82V96.84h-4.39V80a7.41,7.41,0,0,0-1.07-4.39,4.07,4.07,0,0,0-3.52-1.46,6.38,6.38,0,0,0-3.43,1A5.54,5.54,0,0,0,531.18,78a16.07,16.07,0,0,0-.71,5.42V96.84h-4.39Z"/>
    <path class="a" d="M567.72,96.84V70.91h3.93v3.64a9.24,9.24,0,0,1,3.25-3.06,9.13,9.13,0,0,1,4.61-1.16,8.54,8.54,0,0,1,4.72,1.2,6.4,6.4,0,0,1,2.6,3.34,9.31,9.31,0,0,1,8-4.54,7.89,7.89,0,0,1,5.93,2.14q2.07,2.14,2.08,6.58v17.8h-4.37V80.5a12.05,12.05,0,0,0-.43-3.8,3.69,3.69,0,0,0-1.55-1.87,4.84,4.84,0,0,0-2.64-.71,6.13,6.13,0,0,0-4.54,1.82q-1.81,1.82-1.81,5.82V96.84h-4.39V80a7.41,7.41,0,0,0-1.07-4.39,4.07,4.07,0,0,0-3.52-1.46,6.38,6.38,0,0,0-3.43,1A5.54,5.54,0,0,0,572.83,78a16.07,16.07,0,0,0-.71,5.42V96.84h-4.39Z"/>
    <path class="a" d="M627.12,88.49L631.67,89a11.08,11.08,0,0,1-4,6.18,13.48,13.48,0,0,1-16.44-1.31q-3.33-3.5-3.33-9.83,0-6.54,3.37-10.16A11.4,11.4,0,0,1,620,70.32a11.09,11.09,0,0,1,8.5,3.54q3.3,3.54,3.3,10,0,0.39,0,1.17H612.45a10,10,0,0,0,2.42,6.54,7.19,7.19,0,0,0,5.42,2.27,6.72,6.72,0,0,0,4.13-1.27A8.43,8.43,0,0,0,627.12,88.49Zm-14.43-7.1h14.48a8.79,8.79,0,0,0-1.66-4.91,6.74,6.74,0,0,0-5.44-2.54A7,7,0,0,0,615,76,8,8,0,0,0,612.7,81.38Z"/>
    <path class="a" d="M135.18,139.87q0-7.2,4-10.67a12.07,12.07,0,0,1,8.15-2.88,11.63,11.63,0,0,1,8.74,3.5q3.39,3.5,3.39,9.68a17.16,17.16,0,0,1-1.5,7.87,10.63,10.63,0,0,1-4.37,4.46,12.73,12.73,0,0,1-6.26,1.59,11.65,11.65,0,0,1-8.8-3.49Q135.18,146.44,135.18,139.87Zm4.52,0q0,5,2.17,7.46a7.23,7.23,0,0,0,10.91,0q2.17-2.49,2.17-7.59,0-4.81-2.19-7.29a7.24,7.24,0,0,0-10.9,0Q139.7,134.89,139.7,139.87Z"/>
    <path class="a" d="M165.67,152.84V130.33h-3.88v-3.42h3.88v-2.76a12.07,12.07,0,0,1,.46-3.88,5.63,5.63,0,0,1,2.23-2.77,8.06,8.06,0,0,1,4.48-1.06,21.52,21.52,0,0,1,4.1.44l-0.66,3.83a14.82,14.82,0,0,0-2.59-.24,3.85,3.85,0,0,0-2.83.85,4.63,4.63,0,0,0-.83,3.2v2.39h5.05v3.42H170v22.51h-4.37Z"/>
    <path class="a" d="M202,148.9l0.63,3.88a16.35,16.35,0,0,1-3.32.39,7.52,7.52,0,0,1-3.71-.76,4.23,4.23,0,0,1-1.86-2,15.73,15.73,0,0,1-.54-5.19V130.33H190v-3.42h3.22v-6.42l4.37-2.64v9.06H202v3.42h-4.42v15.16a7.67,7.67,0,0,0,.23,2.42,1.83,1.83,0,0,0,.76.85,2.92,2.92,0,0,0,1.5.32A14.25,14.25,0,0,0,202,148.9Z"/>
    <path class="a" d="M206.3,152.84V117h4.39v12.84a9.82,9.82,0,0,1,7.76-3.56,10.48,10.48,0,0,1,5,1.13,6.67,6.67,0,0,1,3,3.14,14.44,14.44,0,0,1,.92,5.81v16.43H223V136.4q0-3.3-1.43-4.8a5.32,5.32,0,0,0-4-1.5,7.12,7.12,0,0,0-3.67,1,5.72,5.72,0,0,0-2.45,2.75,12.62,12.62,0,0,0-.73,4.79v14.18H206.3Z"/>
    <path class="a" d="M251.86,144.49L256.4,145a11.08,11.08,0,0,1-4,6.18A13.48,13.48,0,0,1,236,149.92q-3.33-3.5-3.33-9.83,0-6.54,3.37-10.16a11.41,11.41,0,0,1,8.74-3.61,11.09,11.09,0,0,1,8.5,3.54q3.3,3.54,3.3,10,0,0.39,0,1.17H237.18a10,10,0,0,0,2.42,6.54,7.19,7.19,0,0,0,5.42,2.27,6.72,6.72,0,0,0,4.13-1.27A8.43,8.43,0,0,0,251.86,144.49Zm-14.43-7.1H251.9a8.79,8.79,0,0,0-1.66-4.91,6.74,6.74,0,0,0-5.44-2.54,7,7,0,0,0-5.09,2A8,8,0,0,0,237.43,137.38Z"/>
    <path class="a" d="M276.46,152.84V117h25.88v4.22H281.2v11H301v4.2H281.2v12.18h22v4.22H276.46Z"/>
    <path class="a" d="M326.15,152.84V149a9.49,9.49,0,0,1-8.23,4.39,10.49,10.49,0,0,1-4.29-.88,7.06,7.06,0,0,1-3-2.21,8.27,8.27,0,0,1-1.36-3.26,22.25,22.25,0,0,1-.27-4.1V126.91h4.39v14.38a25.56,25.56,0,0,0,.27,4.64,4.57,4.57,0,0,0,1.76,2.72,5.44,5.44,0,0,0,3.32,1,7.24,7.24,0,0,0,3.71-1,5.63,5.63,0,0,0,2.45-2.76,13.83,13.83,0,0,0,.72-5.07V126.91h4.39v25.93h-3.93Z"/>
    <path class="a" d="M336.91,152.84V126.91h4v3.93a10.71,10.71,0,0,1,2.8-3.64,4.88,4.88,0,0,1,2.82-.88,8.58,8.58,0,0,1,4.52,1.42l-1.51,4.08a6.29,6.29,0,0,0-3.22-1,4.18,4.18,0,0,0-2.59.87,4.69,4.69,0,0,0-1.64,2.4,17.12,17.12,0,0,0-.73,5.13v13.57h-4.39Z"/>
    <path class="a" d="M352,139.87q0-7.2,4-10.67a12.07,12.07,0,0,1,8.15-2.88,11.63,11.63,0,0,1,8.74,3.5q3.39,3.5,3.39,9.68a17.16,17.16,0,0,1-1.5,7.87,10.63,10.63,0,0,1-4.37,4.46,12.73,12.73,0,0,1-6.26,1.59,11.65,11.65,0,0,1-8.8-3.49Q352,146.44,352,139.87Zm4.52,0q0,5,2.17,7.46a7.23,7.23,0,0,0,10.91,0q2.17-2.49,2.17-7.59,0-4.81-2.19-7.29a7.24,7.24,0,0,0-10.9,0Q356.49,134.89,356.49,139.87Z"/>
    <path class="a" d="M381.42,162.77V126.91h4v3.37a9.87,9.87,0,0,1,3.2-3,8.79,8.79,0,0,1,4.32-1A10.25,10.25,0,0,1,398.8,128a10.49,10.49,0,0,1,3.83,4.82,17.61,17.61,0,0,1,1.29,6.82,17.31,17.31,0,0,1-1.43,7.17,10.86,10.86,0,0,1-9.87,6.58,8.28,8.28,0,0,1-3.94-.93,9,9,0,0,1-2.87-2.34v12.62h-4.39Zm4-22.75q0,5,2,7.4a6.21,6.21,0,0,0,4.91,2.39,6.35,6.35,0,0,0,5-2.48q2.09-2.48,2.09-7.68,0-5-2-7.42a6.14,6.14,0,0,0-4.87-2.47,6.33,6.33,0,0,0-5,2.62Q385.4,135,385.4,140Z"/>
    <path class="a" d="M427,144.49l4.54,0.56a11.08,11.08,0,0,1-4,6.18,13.48,13.48,0,0,1-16.44-1.31q-3.33-3.5-3.33-9.83,0-6.54,3.37-10.16a11.41,11.41,0,0,1,8.74-3.61,11.09,11.09,0,0,1,8.5,3.54q3.3,3.54,3.3,10,0,0.39,0,1.17H412.3a10,10,0,0,0,2.42,6.54,7.19,7.19,0,0,0,5.42,2.27,6.72,6.72,0,0,0,4.13-1.27A8.43,8.43,0,0,0,427,144.49Zm-14.43-7.1H427a8.79,8.79,0,0,0-1.66-4.91,6.74,6.74,0,0,0-5.44-2.54,7,7,0,0,0-5.09,2A8,8,0,0,0,412.55,137.38Z"/>
    <path class="a" d="M454,149.64a16.36,16.36,0,0,1-4.7,2.93,13.59,13.59,0,0,1-4.85.85q-4.27,0-6.57-2.09a6.89,6.89,0,0,1-2.29-5.33,7.09,7.09,0,0,1,.87-3.48,7.16,7.16,0,0,1,2.27-2.53,10.7,10.7,0,0,1,3.16-1.44,31.49,31.49,0,0,1,3.91-.66,40.15,40.15,0,0,0,7.84-1.51c0-.6,0-1,0-1.15q0-2.69-1.25-3.78a7.36,7.36,0,0,0-5-1.49,7.76,7.76,0,0,0-4.58,1.09,6.64,6.64,0,0,0-2.18,3.84l-4.3-.59a10.65,10.65,0,0,1,1.93-4.46,8.44,8.44,0,0,1,3.88-2.61,17.29,17.29,0,0,1,5.88-.92,15.58,15.58,0,0,1,5.4.78,7.12,7.12,0,0,1,3.05,2,6.93,6.93,0,0,1,1.37,3,24.75,24.75,0,0,1,.22,4.05V142a62.35,62.35,0,0,0,.28,7.75,9.77,9.77,0,0,0,1.11,3.11h-4.59A9.3,9.3,0,0,1,454,149.64Zm-0.37-9.81a32.2,32.2,0,0,1-7.18,1.66,16.63,16.63,0,0,0-3.83.88,3.82,3.82,0,0,0-1.73,1.43,3.88,3.88,0,0,0,.72,5,5.73,5.73,0,0,0,3.89,1.17,9.07,9.07,0,0,0,4.52-1.11,6.85,6.85,0,0,0,2.91-3,10.62,10.62,0,0,0,.71-4.39v-1.61Z"/>
    <path class="a" d="M464.84,152.84V126.91h4v3.69a9.32,9.32,0,0,1,8.25-4.27,10.85,10.85,0,0,1,4.31.84,6.79,6.79,0,0,1,2.94,2.21,8.5,8.5,0,0,1,1.37,3.25,25.24,25.24,0,0,1,.24,4.27v15.94h-4.39V137.06a11.84,11.84,0,0,0-.51-4,4.22,4.22,0,0,0-1.82-2.12,5.79,5.79,0,0,0-3.06-.79,7.12,7.12,0,0,0-4.85,1.78q-2,1.78-2,6.76v14.16h-4.39Z"/>
    <path class="a" d="M530.59,117h4.74v20.68a24.48,24.48,0,0,1-1.22,8.57,10.46,10.46,0,0,1-4.41,5.16,15.61,15.61,0,0,1-8.36,2,17.19,17.19,0,0,1-8.23-1.73,9.89,9.89,0,0,1-4.57-5,23.89,23.89,0,0,1-1.37-9V117h4.74V137.7a20.16,20.16,0,0,0,.87,6.87,6.58,6.58,0,0,0,3,3.41,10.33,10.33,0,0,0,5.16,1.2q5.22,0,7.45-2.37t2.22-9.11V117Z"/>
    <path class="a" d="M542.65,152.84V126.91h4v3.69a9.32,9.32,0,0,1,8.25-4.27,10.85,10.85,0,0,1,4.31.84,6.79,6.79,0,0,1,2.94,2.21,8.5,8.5,0,0,1,1.37,3.25,25.24,25.24,0,0,1,.24,4.27v15.94h-4.39V137.06a11.84,11.84,0,0,0-.51-4,4.22,4.22,0,0,0-1.82-2.12,5.79,5.79,0,0,0-3.06-.79,7.12,7.12,0,0,0-4.85,1.78q-2,1.78-2,6.76v14.16h-4.39Z"/>
    <path class="a" d="M570.48,122.1V117h4.39v5.05h-4.39Zm0,30.74V126.91h4.39v25.93h-4.39Z"/>
    <path class="a" d="M579.93,139.87q0-7.2,4-10.67a12.07,12.07,0,0,1,8.15-2.88,11.63,11.63,0,0,1,8.74,3.5q3.39,3.5,3.39,9.68a17.16,17.16,0,0,1-1.5,7.87,10.63,10.63,0,0,1-4.37,4.46,12.73,12.73,0,0,1-6.26,1.59,11.65,11.65,0,0,1-8.8-3.49Q579.93,146.44,579.93,139.87Zm4.52,0q0,5,2.17,7.46a7.23,7.23,0,0,0,10.91,0q2.17-2.49,2.17-7.59,0-4.81-2.19-7.29a7.24,7.24,0,0,0-10.9,0Q584.45,134.89,584.45,139.87Z"/>
    <path class="a" d="M609.38,152.84V126.91h4v3.69a9.32,9.32,0,0,1,8.25-4.27,10.85,10.85,0,0,1,4.31.84,6.79,6.79,0,0,1,2.94,2.21,8.5,8.5,0,0,1,1.37,3.25,25.24,25.24,0,0,1,.24,4.27v15.94H626V137.06a11.84,11.84,0,0,0-.51-4,4.22,4.22,0,0,0-1.82-2.12,5.79,5.79,0,0,0-3.06-.79,7.12,7.12,0,0,0-4.85,1.78q-2,1.78-2,6.76v14.16h-4.39Z"/>
  </g>
</svg>
