<svg xmlns="http://www.w3.org/2000/svg" viewBox="0 0 408.52 236.27">
  <title>N&amp;amp;N_LOGO_VECTOR_BLACK</title>
  <g>
    <path d="M378.44,182h-4.12v53.44h34.2v-3.89H378.44V182Zm-33.67,36.5H316.06L330.42,186Zm7.48,16.95h4.43L332.7,182h-4.5l-24,53.44h4.43l5.8-13.13h31.92ZM297.49,182h-4.43l-19.77,48.86L253.51,182h-4.43l22,53.6h4.42Zm-70.68,53.44h4V182h-4v53.44Zm-41.9-49.7v49.7H189v-49.7h19.32v-3.66H165.59v3.66h19.32ZM146,192.3l3.36-2c-5.27-7.87-11.91-9.09-19.55-9.09-8.78,0-20.54,3.52-20.31,14.82,0,9.85,10,11.83,19.77,13.74,8.78,1.68,17.64,3.43,17.56,11.45,0,9.47-10.46,11.3-17,11.3s-15-3.21-18.25-9.7l-3.66,1.83c4.12,8.17,13.59,11.6,21.91,11.6,8.93,0,21.07-2.9,21.15-15C151,209.78,140.3,208,130,206c-9-1.68-16.34-3.28-16.34-10.08,0-8.55,9.93-10.84,16.18-10.84,6,0.08,12.29,1,16.19,7.25M59,206.65V185.88H91.81V182H54.94v53.44H92.73v-4H59V210.39h31.3v-3.74H59Zm-54.86.76v-21.3H36V182H0v53.52H4.12v-24.2H34.89v-3.9H4.12Z"/>
    <path d="M112.65,125.54l0.1-.07-2.81-4L98.11,120l7.26-5.08-2.26-3.24-17.17,12,2.27,3.24,7.6-5.32-2.57,12.51,2.8,4,0.2-.14,2.87-14.33ZM94.45,99.33l-2.27-3.24L75,108.11l8.45,12.07,3-2.1-6.18-8.83ZM80.53,85c2.8,4,.79,7.81-2.07,9.82s-7,2.69-9.91-1.43-0.79-7.86,2.06-9.85S77.75,81,80.53,85m2.94-2.06C79.32,77,72.76,77.29,68.25,80.45s-6.89,9-2.67,15,10.67,5.64,15.16,2.5,6.84-9.18,2.74-15M49.12,71.14l2.26,3.24,6.35-4.45,6,8.61,3-2.1-6-8.61,4.68-3.28,6.37,9.09,3.11-2.18L66.26,59.14ZM52.62,46l3.45,4.93a3.36,3.36,0,1,1-5.49,3.85l-3.45-4.93ZM46.85,67.89l0.22-.16,2.22-9.3c2.95,2.8,6.08,2.21,8.43.56,3-2.08,4.17-6.1,1.36-10.16-1.91-2.72-3.79-5.46-5.69-8.18l-17.19,12,2.27,3.24,5.74-4L46.39,55l-2.23,9ZM41.72,29.56c2.8,4,.79,7.81-2.08,9.82s-7,2.69-9.91-1.42-0.79-7.86,2.06-9.85,7.15-2.52,9.93,1.45m2.94-2.06C40.51,21.57,33.94,21.85,29.43,25s-6.9,9-2.67,15,10.68,5.64,15.16,2.5,6.84-9.17,2.74-15M33.08,11.64L22.41,19.11,27.17,3.25,25.33,0.62l-17.17,12,2.27,3.24L22,7.77,16.72,24.92l0,0,1.41,2,17.19-12Z"/>
    <path d="M381.59,135.54l2.25,3.21,17.17-12-2.25-3.21-7.23,5.07-5.9-8.44,7.23-5.06-2.27-3.24-17.16,12,2.27,3.24,6.94-4.86,5.91,8.44Zm-8.09-16.19,0.69-3.77a7.7,7.7,0,0,1-4.76-3.1c-3-4.27-1.12-8,1.72-10s7.16-2.34,10,1.77a7.21,7.21,0,0,1,1.28,5.28l3.6,0.7a10.82,10.82,0,0,0-1.79-8.14c-4.33-6.18-10.88-5.94-15.37-2.79s-7,8.9-2.53,15.33a11.06,11.06,0,0,0,7.12,4.73m-18.27-21.5,2.25,3.21,17.16-12-2.25-3.21Zm-6.75-9.64L370,82.37l-2.54-3.63L352.3,83.49l9.38-13-1.47-2.11-15.3,4.5,9.55-12.72-2.54-3.63L339.15,74.89l1.92,2.75,6.8-1.66,6.72-2-4.15,5.61-3.9,5.91Zm-8.9-42.81L343,50.32a3.36,3.36,0,1,1-5.5,3.85l-3.45-4.93Zm-5.77,21.87,0.22-.15,2.22-9.3c2.95,2.8,6.08,2.21,8.43.56,3-2.08,4.17-6.1,1.36-10.16-1.91-2.72-3.79-5.46-5.69-8.18l-17.19,12,2.27,3.24,5.74-4,2.18,3.11-2.23,9Zm-5.13-38.32c2.8,4,.79,7.81-2.07,9.82s-7,2.69-9.91-1.42-0.79-7.86,2.05-9.85,7.15-2.52,9.93,1.45m2.94-2.06c-4.15-5.93-10.72-5.65-15.23-2.49s-6.9,9-2.67,15,10.67,5.64,15.16,2.5,6.84-9.17,2.74-15M320,11l-10.67,7.47,4.75-15.86L312.29,0,295.13,12l2.27,3.24L309,7.15,303.69,24.3l0,0,1.41,2,17.19-12Z"/>
  </g>
  <polygon points="120.91 107.34 120.91 8.93 91.22 8.93 91.22 64.57 120.91 107.34"/>
  <polygon points="0 31.41 0 129.83 29.7 129.83 29.7 74.18 0 31.41"/>
  <polygon points="408.52 107.34 408.52 8.93 378.82 8.93 378.82 64.57 408.52 107.34"/>
  <polygon points="287.61 31.41 287.61 129.83 317.3 129.83 317.3 74.18 287.61 31.41"/>
  <path d="M197.23,11.75c10.46-.2,16.57,4.18,20.46,10.58a17.74,17.74,0,0,1,1.58,4.15c0.23,0.83.24,1.72,0.44,2.58v0.57a9.92,9.92,0,0,1-.13,3.41c-0.16.65-.15,1.2-0.35,1.79a19.37,19.37,0,0,1-2,4.38c-0.36.57-.82,1.12-1.23,1.66l-0.61.61a10.73,10.73,0,0,1-2.14,2.1,4.15,4.15,0,0,1-1.36.66A2.79,2.79,0,0,1,209.26,43a2.14,2.14,0,0,1-.61-1.88,5.93,5.93,0,0,1,.87-1.66,20.17,20.17,0,0,0,1.36-2.53,41.26,41.26,0,0,0,1.44-4l0.48-2.23,0.26-2.06V28a12.77,12.77,0,0,0-.18-4.11c-0.16-.65-0.15-1.2-0.35-1.79a9.13,9.13,0,0,0-5-6,10.39,10.39,0,0,0-5.51-.66,17.56,17.56,0,0,0-2.58.57,9.52,9.52,0,0,0-5.68,6.38c-0.29.87-.35,1.83-0.57,2.76,0,0.25,0,.49,0,0.74a13,13,0,0,0,.13,5.34,15.6,15.6,0,0,0,2.45,4.42c0.41,0.55.94,1,1.36,1.57l1.4,1.36A33.18,33.18,0,0,0,202,41.79c1,0.76,1.94,1.73,3,2.49,2.44,1.8,4.78,3.69,7.26,5.47,3.78,2.72,7.34,5.75,11.07,8.53,1.09,0.81,2.05,1.8,3.15,2.62l0.57,0.57a60.26,60.26,0,0,1,6,5.6,54.4,54.4,0,0,1,12.07,17,43,43,0,0,1,1.66,5.42c0.18,0.66.2,1.37,0.35,2l0.21,2.18v1a6.73,6.73,0,0,1,0,2.23v0.88l-0.13,2c-0.13.59-.07,1.22-0.22,1.84-0.28,1.18-.41,2.45-0.74,3.54-0.19.61-.24,1.16-0.44,1.75a30.8,30.8,0,0,1-1.84,4.46c-0.16.32-.25,0.65-0.43,1-0.9,1.49-1.83,2.89-2.84,4.25-0.22.29-.57,0.53-0.79,0.83a11,11,0,0,1-2.1,2.14c-0.36.27-.64,0.69-1,1-0.79.59-1.55,1.22-2.36,1.79a37.47,37.47,0,0,1-9.8,4.59c-1.59.53-3.29,0.76-5,1.18l-2.67.4c-0.78.18-1.62,0-2.37,0.22h-0.74c-0.31.06-.81,0-1.18,0a9.37,9.37,0,0,1-2.71,0c-0.4-.09-0.93,0-1.27,0h-0.83c-1.22-.27-3.67.14-4.11-0.83v-1.18h0a0.53,0.53,0,0,1,.26-0.26c0.75-.65,1.54-0.2,2.62-0.44l2.23-.26a36.14,36.14,0,0,0,4-1c4.56-1.69,8.16-4.37,10.06-8.7a24.1,24.1,0,0,0,1-3.32,17.77,17.77,0,0,0,.57-4.68,10.31,10.31,0,0,0-.09-2.23c-0.19-.81-0.23-1.64-0.48-2.4a19.36,19.36,0,0,0-1.7-4,22.57,22.57,0,0,0-5.6-6.34c-1.55-1.14-3.2-2.15-4.86-3.19C210.59,89,209.3,88,208,87.13c-1.62-1.08-3.24-2.07-4.85-3.15-4.31-2.86-8.56-5.82-12.77-8.79-2.29-1.62-4.45-3.44-6.69-5.12-1.59-1.19-3-2.65-4.55-3.85-0.48-.36-0.87-0.85-1.36-1.23l-0.48-.52a13.32,13.32,0,0,1-1.35-1.23l-0.44-.48a14.86,14.86,0,0,1-2-2,40.22,40.22,0,0,1-3.06-3.5,32.7,32.7,0,0,1-3.67-7.43c-0.37-1-.55-2.06-0.83-3.1l-0.17-1.27a19.28,19.28,0,0,1,0-6.6c0.14-.62.07-1.16,0.22-1.75a35.68,35.68,0,0,1,1.27-4.63,33.55,33.55,0,0,1,3.45-6.6c0.74-1.06,1.63-2,2.41-3l0.52-.48a13.56,13.56,0,0,1,2.62-2.49c0.3-.23.57-0.56,0.87-0.79,0.9-.66,1.81-1.37,2.76-2a40.31,40.31,0,0,1,9-4.07c1.7-.56,3.55-0.67,5.42-1.09l3-.22"/>
  <path d="M249.14,27a16,16,0,0,1,3.8.26c0.38,0.1.68,0,1.05,0.14a26.29,26.29,0,0,1,3.8,1.13,17.66,17.66,0,0,1,9.58,9.27,23.24,23.24,0,0,1,1,3.54c0.13,0.52,0,1,.13,1.53a4.67,4.67,0,0,1,0,1.45v1.14c-0.24,1.06-.24,2.17-0.52,3.11a21.45,21.45,0,0,1-.75,2.4,13.62,13.62,0,0,1-9.35,7.87c-0.77.22-1.61,0.21-2.41,0.4H255a9.48,9.48,0,0,1-4.16-.4,12.32,12.32,0,0,1-8-7.26,12.87,12.87,0,0,1,.88-10.41A15.45,15.45,0,0,1,247.56,37a14.71,14.71,0,0,0,2.84-2.36,2.17,2.17,0,0,0,.61-2.05,3.31,3.31,0,0,0-.48-0.66,2,2,0,0,0-.35-0.44,5.63,5.63,0,0,0-4.33-.74l-1.71.35a15.92,15.92,0,0,0-3.59,1.62c-4.78,3-7.53,7.87-9.88,13.29-0.7,1.61-1.27,3.34-1.83,5-0.28.81-.49,1.62-0.75,2.4a4.17,4.17,0,0,1-.3,1,4.72,4.72,0,0,1-.79.7,4.65,4.65,0,0,1-1-.09,3.1,3.1,0,0,1-.53-0.7c-0.27-.8.29-2.12,0.48-2.71,0.72-2.17,1.26-4.3,2.1-6.29,0.43-1,.74-2,1.18-3,1.79-4.06,4.62-8.47,8-11a20.76,20.76,0,0,1,3.58-2.4,29,29,0,0,1,5-1.66c0.79-.2,1.64-0.12,2.45-0.31a3.94,3.94,0,0,0,.92,0"/>
  <path d="M165.48,59.58a2.14,2.14,0,0,1,2.19,3,18.5,18.5,0,0,1-1.49,2.54,13.46,13.46,0,0,0-.79,1.79,13.48,13.48,0,0,0-.92,7.87,21.9,21.9,0,0,0,.79,2.84A30.74,30.74,0,0,0,169,84.16c0.55,0.75,1.23,1.4,1.79,2.14l0.52,0.48a9.17,9.17,0,0,0,1.75,1.75l0.52,0.57c0.48,0.36.88,0.82,1.36,1.18,1.31,1,2.58,2,3.94,3a45.32,45.32,0,0,0,11.46,5.68c1.47,0.49,3,.7,4.63,1.1l2.1,0.22h0.79a11.37,11.37,0,0,0,2.67-.22c0.77-.19,1.44-0.2,2.14-0.44a20.57,20.57,0,0,0,5.77-3,12.2,12.2,0,0,1,2.36-1.79,1.54,1.54,0,0,1,1.49.09,1.94,1.94,0,0,1,.62,2.32,12.21,12.21,0,0,1-.83,1.49c-0.65,1.06-1.19,2.16-1.84,3.19-1.26,2-2.52,3.91-3.89,5.77-0.56.76-1.26,1.43-1.83,2.19l-0.48.43a10.4,10.4,0,0,1-2,2c-0.39.3-.7,0.75-1.09,1.05-0.72.54-1.41,1.14-2.14,1.66-1,.73-2.18,1.34-3.28,2a11.09,11.09,0,0,1-1.36.61c-0.8.35-1.66,0.75-2.49,1.09a39.74,39.74,0,0,1-4.63,1.31l-2.76.48-0.65,0c-1.06.24-2.39,0.1-3.5,0.35H179a10.86,10.86,0,0,1-2.75,0l-1.53,0c-0.51-.12-1.08,0-1.62-0.18-1.23-.29-2.51-0.34-3.67-0.7a48,48,0,0,1-5.07-1.66c-7.92-3.44-14.95-9.36-18.41-17.23-0.31-.69-0.66-1.46-1-2.19a33.65,33.65,0,0,1-1-3.63l-0.44-2.75c0-.35,0-0.7,0-1a8.19,8.19,0,0,1,0-2.58c0.12-.55,0-1.15.09-1.62,0-.31,0-0.61,0-0.92,0.16-.67.13-1.41,0.31-2.1a42.65,42.65,0,0,1,2-6.47c2.65-6,7.44-10.62,12.55-14.21,1.66-1.17,3.49-2.12,5.25-3.19a9.58,9.58,0,0,1,1.22-.62,3.36,3.36,0,0,0,.61-0.17"/>
</svg>
